{
  "source": "C:\\Users\\Peter\\Desktop\\stuff\\MIUN\\quantitative_research\\video_compression\\videos\\BVI-HD\\BVI-HD_CDVL_videos\\ORIG\\Boxing_1920x1080_30fps.mp4",
  "output": "C:\\Users\\Peter\\Desktop\\stuff\\MIUN\\quantitative_research\\video_compression\\compressed_videos\\BVI-HD\\hevc\\2.5\\Boxing_1920x1080_30fps_hevc.mp4",
  "codec": "hevc",
  "ok": "Input #0, mov,mp4,m4a,3gp,3g2,mj2, from 'C:\\Users\\Peter\\Desktop\\stuff\\MIUN\\quantitative_research\\video_compression\\videos\\BVI-HD\\BVI-HD_CDVL_videos\\ORIG\\Boxing_1920x1080_30fps.mp4':\n  Metadata:\n    major_brand     : isom\n    minor_version   : 512\n    compatible_brands: isomiso2avc1mp41\n    encoder         : Lavf54.28.101\n  Duration: 00:00:05.00, start: 0.000000, bitrate: 238363 kb/s\n  Stream #0:0[0x1](und): Video: h264 (High 4:4:4 Predictive) (avc1 / 0x31637661), yuv420p(progressive), 1920x1080, 238359 kb/s, 30 fps, 30 tbr, 30 tbn (default)\n    Metadata:\n      handler_name    : VideoHandler\n      vendor_id       : [0][0][0][0]\n[out#0/mp4 @ 0000014429b1c580] Codec AVOption b:a (set bitrate (in bits/s)) has not been used for any stream. The most likely reason is either wrong type (e.g. a video option with no video streams) or that it is a private option of some decoder which was not actually used for any stream.\nStream mapping:\n  Stream #0:0 -> #0:0 (h264 (native) -> hevc (libx265))\nPress [q] to stop, [?] for help\n[libx265 @ 000001442a3cb240] Unknown option: \"aq-mode.\nx265 [info]: HEVC encoder version 4.1+190-8f11c33ac\nx265 [info]: build info [Windows][GCC 15.1.0][64 bit] 10bit\nx265 [info]: using cpu capabilities: MMX2 SSE2Fast LZCNT SSSE3 SSE4.2 AVX FMA3 BMI2 AVX2\nx265 [info]: Main 10 profile, Level-4 (Main tier)\nx265 [info]: Thread pool created using 12 threads\nx265 [info]: Slices                              : 1\nx265 [info]: frame threads / pool features       : 3 / wpp(17 rows)\nx265 [info]: Coding QT: max CU size, min CU size : 64 / 8\nx265 [info]: Residual QT: max TU size, max depth : 32 / 1 inter / 1 intra\nx265 [info]: ME / range / subpel / merge         : star / 57 / 3 / 3\nx265 [info]: Keyframe min / max / scenecut / bias  : 25 / 250 / 40 / 5.00 \nx265 [info]: Lookahead / bframes / badapt        : 25 / 4 / 2\nx265 [info]: b-pyramid / weightp / weightb       : 1 / 1 / 0\nx265 [info]: References / ref-limit  cu / depth  : 4 / on / on\nx265 [info]: AQ: mode / str / qg-size / cu-tree  : 2 / 1.0 / 32 / 1\nx265 [info]: Rate Control / qCompress            : ABR-2500 kbps / 0.60\nx265 [info]: VBV/HRD buffer / max-rate / init    : 2500 / 2500 / 0.750\nx265 [info]: tools: rect limit-modes rd=4 psy-rd=2.00 rdoq=2 psy-rdoq=1.00\nx265 [info]: tools: rskip mode=1 signhide tmvp strong-intra-smoothing lslices=4\nx265 [info]: tools: deblock sao dhdr10-info\nOutput #0, mp4, to 'C:\\Users\\Peter\\Desktop\\stuff\\MIUN\\quantitative_research\\video_compression\\compressed_videos\\BVI-HD\\hevc\\2.5\\Boxing_1920x1080_30fps_hevc.mp4':\n  Metadata:\n    major_brand     : isom\n    minor_version   : 512\n    compatible_brands: isomiso2avc1mp41\n    encoder         : Lavf62.3.100\n  Stream #0:0(und): Video: hevc (hev1 / 0x31766568), yuv420p10le(tv, progressive), 1920x1080, q=2-31, 2500 kb/s, 30 fps, 15360 tbn (default)\n    Metadata:\n      encoder         : Lavc62.11.100 libx265\n      handler_name    : VideoHandler\n      vendor_id       : [0][0][0][0]\n    Side data:\n      cpb: bitrate max/min/avg: 2500000/0/2500000 buffer size: 2500000 vbv_delay: N/A\nframe=    0 fps=0.0 q=0.0 size=       0KiB time=N/A bitrate=N/A speed=N/A elapsed=0:00:00.51    \nframe=    0 fps=0.0 q=0.0 size=       0KiB time=N/A bitrate=N/A speed=N/A elapsed=0:00:01.06    \nframe=    0 fps=0.0 q=0.0 size=       0KiB time=N/A bitrate=N/A speed=N/A elapsed=0:00:01.57    \nframe=    0 fps=0.0 q=0.0 size=       0KiB time=N/A bitrate=N/A speed=N/A elapsed=0:00:02.09    \nframe=    0 fps=0.0 q=0.0 size=       0KiB time=N/A bitrate=N/A speed=N/A elapsed=0:00:02.61    \nframe=    0 fps=0.0 q=0.0 size=       0KiB time=N/A bitrate=N/A speed=N/A elapsed=0:00:03.12    \nframe=    0 fps=0.0 q=0.0 size=       0KiB time=N/A bitrate=N/A speed=N/A elapsed=0:00:03.64    \nframe=    0 fps=0.0 q=0.0 size=       0KiB time=N/A bitrate=N/A speed=N/A elapsed=0:00:04.16    \nframe=    0 fps=0.0 q=0.0 size=       0KiB time=N/A bitrate=N/A speed=N/A elapsed=0:00:04.67    \nframe=    0 fps=0.0 q=0.0 size=       0KiB time=N/A bitrate=N/A speed=N/A elapsed=0:00:05.19    \nframe=    1 fps=0.2 q=33.7 size=       0KiB time=-00:00:00.03 bitrate=N/A speed=N/A elapsed=0:00:05.71    \nframe=    1 fps=0.2 q=33.7 size=       0KiB time=-00:00:00.03 bitrate=N/A speed=N/A elapsed=0:00:06.24    \nframe=    1 fps=0.1 q=33.7 size=       0KiB time=-00:00:00.03 bitrate=N/A speed=N/A elapsed=0:00:06.76    \nframe=    1 fps=0.1 q=33.7 size=       0KiB time=-00:00:00.03 bitrate=N/A speed=N/A elapsed=0:00:07.28    \nframe=    1 fps=0.1 q=33.7 size=       0KiB time=-00:00:00.03 bitrate=N/A speed=N/A elapsed=0:00:07.83    \nframe=    2 fps=0.2 q=36.7 size=       0KiB time=00:00:00.00 bitrate=N/A speed=   0x elapsed=0:00:08.37    \nframe=    2 fps=0.2 q=36.7 size=       0KiB time=00:00:00.00 bitrate=N/A speed=   0x elapsed=0:00:08.92    \nframe=    2 fps=0.2 q=36.7 size=       0KiB time=00:00:00.00 bitrate=N/A speed=   0x elapsed=0:00:09.45    \nframe=    3 fps=0.3 q=39.0 size=       0KiB time=00:00:00.03 bitrate=  10.6kbits/s speed=0.00334x elapsed=0:00:09.97    \nframe=    3 fps=0.3 q=39.0 size=       0KiB time=00:00:00.03 bitrate=  10.6kbits/s speed=0.00318x elapsed=0:00:10.48    \nframe=    3 fps=0.3 q=39.0 size=       0KiB time=00:00:00.03 bitrate=  10.6kbits/s speed=0.00303x elapsed=0:00:11.00    \nframe=    3 fps=0.3 q=39.0 size=       0KiB time=00:00:00.03 bitrate=  10.6kbits/s speed=0.00289x elapsed=0:00:11.52    \nframe=    3 fps=0.2 q=39.0 size=       0KiB time=00:00:00.03 bitrate=  10.6kbits/s speed=0.00277x elapsed=0:00:12.04    \nframe=    3 fps=0.2 q=39.0 size=       0KiB time=00:00:00.03 bitrate=  10.6kbits/s speed=0.00265x elapsed=0:00:12.57    \nframe=    3 fps=0.2 q=39.0 size=       0KiB time=00:00:00.03 bitrate=  10.6kbits/s speed=0.00255x elapsed=0:00:13.08    \nframe=    4 fps=0.3 q=40.6 size=       0KiB time=00:00:00.06 bitrate=   5.3kbits/s speed=0.0049x elapsed=0:00:13.60    \nframe=    4 fps=0.3 q=40.6 size=       0KiB time=00:00:00.06 bitrate=   5.3kbits/s speed=0.00471x elapsed=0:00:14.14    \nframe=    4 fps=0.3 q=40.6 size=       0KiB time=00:00:00.06 bitrate=   5.3kbits/s speed=0.00454x elapsed=0:00:14.68    \nframe=    4 fps=0.3 q=40.6 size=       0KiB time=00:00:00.06 bitrate=   5.3kbits/s speed=0.00438x elapsed=0:00:15.20    \nframe=    5 fps=0.3 q=39.1 size=       0KiB time=00:00:00.10 bitrate=   3.5kbits/s speed=0.00636x elapsed=0:00:15.72    \nframe=    5 fps=0.3 q=39.1 size=       0KiB time=00:00:00.10 bitrate=   3.5kbits/s speed=0.00615x elapsed=0:00:16.27    \nframe=    5 fps=0.3 q=39.1 size=       0KiB time=00:00:00.10 bitrate=   3.5kbits/s speed=0.00595x elapsed=0:00:16.81    \nframe=    6 fps=0.3 q=35.1 size=       0KiB time=00:00:00.13 bitrate=   2.6kbits/s speed=0.00768x elapsed=0:00:17.36    \nframe=    6 fps=0.3 q=35.1 size=       0KiB time=00:00:00.13 bitrate=   2.6kbits/s speed=0.00745x elapsed=0:00:17.89    \nframe=    6 fps=0.3 q=35.1 size=       0KiB time=00:00:00.13 bitrate=   2.6kbits/s speed=0.00723x elapsed=0:00:18.43    \nframe=    6 fps=0.3 q=35.1 size=       0KiB time=00:00:00.13 bitrate=   2.6kbits/s speed=0.00703x elapsed=0:00:18.95    \nframe=    7 fps=0.4 q=37.6 size=       0KiB time=00:00:00.16 bitrate=   2.1kbits/s speed=0.00856x elapsed=0:00:19.46    \nframe=    7 fps=0.4 q=37.6 size=       0KiB time=00:00:00.16 bitrate=   2.1kbits/s speed=0.00834x elapsed=0:00:19.99    \nframe=    8 fps=0.4 q=38.8 size=       0KiB time=00:00:00.20 bitrate=   1.8kbits/s speed=0.00975x elapsed=0:00:20.52    \nframe=    8 fps=0.4 q=38.8 size=       0KiB time=00:00:00.20 bitrate=   1.8kbits/s speed=0.0095x elapsed=0:00:21.05    \nframe=    8 fps=0.4 q=38.8 size=       0KiB time=00:00:00.20 bitrate=   1.8kbits/s speed=0.00927x elapsed=0:00:21.56    \nframe=    8 fps=0.4 q=38.8 size=       0KiB time=00:00:00.20 bitrate=   1.8kbits/s speed=0.00906x elapsed=0:00:22.08    \nframe=    8 fps=0.4 q=38.8 size=       0KiB time=00:00:00.20 bitrate=   1.8kbits/s speed=0.00885x elapsed=0:00:22.60    \nframe=    9 fps=0.4 q=38.3 size=       0KiB time=00:00:00.23 bitrate=   1.5kbits/s speed=0.0101x elapsed=0:00:23.12    \nframe=    9 fps=0.4 q=38.3 size=       0KiB time=00:00:00.23 bitrate=   1.5kbits/s speed=0.00987x elapsed=0:00:23.65    \nframe=    9 fps=0.4 q=38.3 size=       0KiB time=00:00:00.23 bitrate=   1.5kbits/s speed=0.00965x elapsed=0:00:24.18    \nframe=    9 fps=0.4 q=38.3 size=       0KiB time=00:00:00.23 bitrate=   1.5kbits/s speed=0.00943x elapsed=0:00:24.74    \nframe=    9 fps=0.4 q=38.3 size=       0KiB time=00:00:00.23 bitrate=   1.5kbits/s speed=0.00923x elapsed=0:00:25.26    \nframe=   10 fps=0.4 q=36.9 size=       0KiB time=00:00:00.26 bitrate=   1.3kbits/s speed=0.0103x elapsed=0:00:25.78    \nframe=   10 fps=0.4 q=36.9 size=       0KiB time=00:00:00.26 bitrate=   1.3kbits/s speed=0.0101x elapsed=0:00:26.30    \nframe=   11 fps=0.4 q=32.8 size=       0KiB time=00:00:00.30 bitrate=   1.2kbits/s speed=0.0112x elapsed=0:00:26.81    \nframe=   11 fps=0.4 q=32.8 size=       0KiB time=00:00:00.30 bitrate=   1.2kbits/s speed=0.011x elapsed=0:00:27.35    \nframe=   12 fps=0.4 q=35.9 size=       0KiB time=00:00:00.33 bitrate=   1.1kbits/s speed=0.012x elapsed=0:00:27.87    \nframe=   12 fps=0.4 q=35.9 size=       0KiB time=00:00:00.33 bitrate=   1.1kbits/s speed=0.0117x elapsed=0:00:28.40    \nframe=   12 fps=0.4 q=35.9 size=       0KiB time=00:00:00.33 bitrate=   1.1kbits/s speed=0.0115x elapsed=0:00:28.96    \nframe=   12 fps=0.4 q=35.9 size=       0KiB time=00:00:00.33 bitrate=   1.1kbits/s speed=0.0113x elapsed=0:00:29.48    \nframe=   12 fps=0.4 q=35.9 size=       0KiB time=00:00:00.33 bitrate=   1.1kbits/s speed=0.0111x elapsed=0:00:30.00    \nframe=   13 fps=0.4 q=37.3 size=       0KiB time=00:00:00.36 bitrate=   1.0kbits/s speed=0.012x elapsed=0:00:30.52    \nframe=   13 fps=0.4 q=37.3 size=       0KiB time=00:00:00.36 bitrate=   1.0kbits/s speed=0.0118x elapsed=0:00:31.03    \nframe=   13 fps=0.4 q=37.3 size=       0KiB time=00:00:00.36 bitrate=   1.0kbits/s speed=0.0116x elapsed=0:00:31.55    \nframe=   13 fps=0.4 q=37.3 size=       0KiB time=00:00:00.36 bitrate=   1.0kbits/s speed=0.0114x elapsed=0:00:32.07    \nframe=   13 fps=0.4 q=37.3 size=       0KiB time=00:00:00.36 bitrate=   1.0kbits/s speed=0.0113x elapsed=0:00:32.57    \nframe=   14 fps=0.4 q=36.6 size=       0KiB time=00:00:00.40 bitrate=   0.9kbits/s speed=0.0121x elapsed=0:00:33.09    \nframe=   14 fps=0.4 q=36.6 size=       0KiB time=00:00:00.40 bitrate=   0.9kbits/s speed=0.0119x elapsed=0:00:33.66    \nframe=   15 fps=0.4 q=32.4 size=       0KiB time=00:00:00.43 bitrate=   0.8kbits/s speed=0.0127x elapsed=0:00:34.19    \nframe=   15 fps=0.4 q=32.4 size=       0KiB time=00:00:00.43 bitrate=   0.8kbits/s speed=0.0125x elapsed=0:00:34.71    \nframe=   15 fps=0.4 q=32.4 size=       0KiB time=00:00:00.43 bitrate=   0.8kbits/s speed=0.0123x elapsed=0:00:35.28    \nframe=   15 fps=0.4 q=32.4 size=       0KiB time=00:00:00.43 bitrate=   0.8kbits/s speed=0.0121x elapsed=0:00:35.80    \nframe=   15 fps=0.4 q=32.4 size=       0KiB time=00:00:00.43 bitrate=   0.8kbits/s speed=0.0119x elapsed=0:00:36.33    \nframe=   15 fps=0.4 q=32.4 size=       0KiB time=00:00:00.43 bitrate=   0.8kbits/s speed=0.0117x elapsed=0:00:36.93    \nframe=   15 fps=0.4 q=32.4 size=       0KiB time=00:00:00.43 bitrate=   0.8kbits/s speed=0.0116x elapsed=0:00:37.49    \nframe=   15 fps=0.4 q=32.4 size=       0KiB time=00:00:00.43 bitrate=   0.8kbits/s speed=0.0114x elapsed=0:00:38.09    \nframe=   15 fps=0.4 q=32.4 size=       0KiB time=00:00:00.43 bitrate=   0.8kbits/s speed=0.0112x elapsed=0:00:38.65    \nframe=   15 fps=0.4 q=32.4 size=       0KiB time=00:00:00.43 bitrate=   0.8kbits/s speed=0.011x elapsed=0:00:39.21    \nframe=   16 fps=0.4 q=34.4 size=       0KiB time=00:00:00.46 bitrate=   0.8kbits/s speed=0.0117x elapsed=0:00:39.73    \nframe=   16 fps=0.4 q=34.4 size=       0KiB time=00:00:00.46 bitrate=   0.8kbits/s speed=0.0116x elapsed=0:00:40.26    \nframe=   16 fps=0.4 q=34.4 size=       0KiB time=00:00:00.46 bitrate=   0.8kbits/s speed=0.0114x elapsed=0:00:40.77    \nframe=   16 fps=0.4 q=34.4 size=       0KiB time=00:00:00.46 bitrate=   0.8kbits/s speed=0.0113x elapsed=0:00:41.31    \nframe=   16 fps=0.4 q=34.4 size=       0KiB time=00:00:00.46 bitrate=   0.8kbits/s speed=0.0112x elapsed=0:00:41.83    \nframe=   16 fps=0.4 q=34.4 size=       0KiB time=00:00:00.46 bitrate=   0.8kbits/s speed=0.011x elapsed=0:00:42.35    \nframe=   16 fps=0.4 q=34.4 size=       0KiB time=00:00:00.46 bitrate=   0.8kbits/s speed=0.0109x elapsed=0:00:42.87    \nframe=   17 fps=0.4 q=36.6 size=       0KiB time=00:00:00.50 bitrate=   0.7kbits/s speed=0.0115x elapsed=0:00:43.38    \nframe=   17 fps=0.4 q=36.6 size=       0KiB time=00:00:00.50 bitrate=   0.7kbits/s speed=0.0114x elapsed=0:00:43.90    \nframe=   18 fps=0.4 q=35.8 size=       0KiB time=00:00:00.53 bitrate=   0.7kbits/s speed=0.012x elapsed=0:00:44.43    \nframe=   18 fps=0.4 q=35.8 size=       0KiB time=00:00:00.53 bitrate=   0.7kbits/s speed=0.0119x elapsed=0:00:44.96    \nframe=   19 fps=0.4 q=31.6 size=       0KiB time=00:00:00.56 bitrate=   0.6kbits/s speed=0.0124x elapsed=0:00:45.54    \nframe=   19 fps=0.4 q=31.6 size=       0KiB time=00:00:00.56 bitrate=   0.6kbits/s speed=0.0123x elapsed=0:00:46.07    \nframe=   19 fps=0.4 q=31.6 size=       0KiB time=00:00:00.56 bitrate=   0.6kbits/s speed=0.0122x elapsed=0:00:46.61    \nframe=   19 fps=0.4 q=31.6 size=       0KiB time=00:00:00.56 bitrate=   0.6kbits/s speed=0.012x elapsed=0:00:47.15    \nframe=   19 fps=0.4 q=31.6 size=       0KiB time=00:00:00.56 bitrate=   0.6kbits/s speed=0.0119x elapsed=0:00:47.68    \nframe=   20 fps=0.4 q=33.9 size=       0KiB time=00:00:00.60 bitrate=   0.6kbits/s speed=0.0124x elapsed=0:00:48.22    \nframe=   20 fps=0.4 q=33.9 size=       0KiB time=00:00:00.60 bitrate=   0.6kbits/s speed=0.0123x elapsed=0:00:48.79    \nframe=   20 fps=0.4 q=33.9 size=       0KiB time=00:00:00.60 bitrate=   0.6kbits/s speed=0.0122x elapsed=0:00:49.31    \nframe=   21 fps=0.4 q=35.5 size=       0KiB time=00:00:00.63 bitrate=   0.6kbits/s speed=0.0127x elapsed=0:00:49.83    \nframe=   21 fps=0.4 q=35.5 size=       0KiB time=00:00:00.63 bitrate=   0.6kbits/s speed=0.0126x elapsed=0:00:50.34    \nframe=   21 fps=0.4 q=35.5 size=       0KiB time=00:00:00.63 bitrate=   0.6kbits/s speed=0.0124x elapsed=0:00:50.87    \nframe=   21 fps=0.4 q=35.5 size=       0KiB time=00:00:00.63 bitrate=   0.6kbits/s speed=0.0123x elapsed=0:00:51.39    \nframe=   22 fps=0.4 q=31.3 size=       0KiB time=00:00:00.66 bitrate=   0.5kbits/s speed=0.0128x elapsed=0:00:51.93    \nframe=   22 fps=0.4 q=31.3 size=       0KiB time=00:00:00.66 bitrate=   0.5kbits/s speed=0.0127x elapsed=0:00:52.47    \nframe=   22 fps=0.4 q=31.3 size=       0KiB time=00:00:00.66 bitrate=   0.5kbits/s speed=0.0126x elapsed=0:00:53.02    \nframe=   22 fps=0.4 q=31.3 size=       0KiB time=00:00:00.66 bitrate=   0.5kbits/s speed=0.0124x elapsed=0:00:53.56    \nframe=   22 fps=0.4 q=31.3 size=       0KiB time=00:00:00.66 bitrate=   0.5kbits/s speed=0.0123x elapsed=0:00:54.11    \nframe=   22 fps=0.4 q=31.3 size=       0KiB time=00:00:00.66 bitrate=   0.5kbits/s speed=0.0122x elapsed=0:00:54.72    \nframe=   23 fps=0.4 q=35.2 size=       0KiB time=00:00:00.70 bitrate=   0.5kbits/s speed=0.0127x elapsed=0:00:55.31    \nframe=   23 fps=0.4 q=35.2 size=       0KiB time=00:00:00.70 bitrate=   0.5kbits/s speed=0.0125x elapsed=0:00:55.91    \nframe=   23 fps=0.4 q=35.2 size=       0KiB time=00:00:00.70 bitrate=   0.5kbits/s speed=0.0124x elapsed=0:00:56.46    \nframe=   23 fps=0.4 q=35.2 size=       0KiB time=00:00:00.70 bitrate=   0.5kbits/s speed=0.0123x elapsed=0:00:57.02    \nframe=   23 fps=0.4 q=35.2 size=       0KiB time=00:00:00.70 bitrate=   0.5kbits/s speed=0.0122x elapsed=0:00:57.53    \nframe=   24 fps=0.4 q=31.8 size=       0KiB time=00:00:00.73 bitrate=   0.5kbits/s speed=0.0126x elapsed=0:00:58.09    \nframe=   24 fps=0.4 q=31.8 size=       0KiB time=00:00:00.73 bitrate=   0.5kbits/s speed=0.0125x elapsed=0:00:58.63    \nframe=   24 fps=0.4 q=31.8 size=       0KiB time=00:00:00.73 bitrate=   0.5kbits/s speed=0.0124x elapsed=0:00:59.19    \nframe=   24 fps=0.4 q=31.8 size=       0KiB time=00:00:00.73 bitrate=   0.5kbits/s speed=0.0123x elapsed=0:00:59.75    \nframe=   24 fps=0.4 q=31.8 size=       0KiB time=00:00:00.73 bitrate=   0.5kbits/s speed=0.0122x elapsed=0:01:00.28    \nframe=   24 fps=0.4 q=31.8 size=       0KiB time=00:00:00.73 bitrate=   0.5kbits/s speed=0.012x elapsed=0:01:00.86    \nframe=   24 fps=0.4 q=31.8 size=       0KiB time=00:00:00.73 bitrate=   0.5kbits/s speed=0.0119x elapsed=0:01:01.40    \nframe=   24 fps=0.4 q=31.8 size=       0KiB time=00:00:00.73 bitrate=   0.5kbits/s speed=0.0118x elapsed=0:01:01.96    \nframe=   24 fps=0.4 q=31.8 size=       0KiB time=00:00:00.73 bitrate=   0.5kbits/s speed=0.0117x elapsed=0:01:02.53    \nframe=   24 fps=0.4 q=31.8 size=       0KiB time=00:00:00.73 bitrate=   0.5kbits/s speed=0.0116x elapsed=0:01:03.04    \nframe=   25 fps=0.4 q=32.8 size=       0KiB time=00:00:00.76 bitrate=   0.5kbits/s speed=0.0121x elapsed=0:01:03.56    \nframe=   25 fps=0.4 q=32.8 size=       0KiB time=00:00:00.76 bitrate=   0.5kbits/s speed=0.012x elapsed=0:01:04.08    \nframe=   25 fps=0.4 q=32.8 size=       0KiB time=00:00:00.76 bitrate=   0.5kbits/s speed=0.0119x elapsed=0:01:04.63    \nframe=   25 fps=0.4 q=32.8 size=       0KiB time=00:00:00.76 bitrate=   0.5kbits/s speed=0.0118x elapsed=0:01:05.19    \nframe=   25 fps=0.4 q=32.8 size=       0KiB time=00:00:00.76 bitrate=   0.5kbits/s speed=0.0117x elapsed=0:01:05.72    \nframe=   26 fps=0.4 q=34.8 size=       0KiB time=00:00:00.80 bitrate=   0.4kbits/s speed=0.0121x elapsed=0:01:06.28    \nframe=   26 fps=0.4 q=34.8 size=       0KiB time=00:00:00.80 bitrate=   0.4kbits/s speed=0.012x elapsed=0:01:06.81    \nframe=   26 fps=0.4 q=34.8 size=       0KiB time=00:00:00.80 bitrate=   0.4kbits/s speed=0.0119x elapsed=0:01:07.36    \nframe=   26 fps=0.4 q=34.8 size=       0KiB time=00:00:00.80 bitrate=   0.4kbits/s speed=0.0118x elapsed=0:01:07.90    \nframe=   26 fps=0.4 q=34.8 size=       0KiB time=00:00:00.80 bitrate=   0.4kbits/s speed=0.0117x elapsed=0:01:08.43    \nframe=   26 fps=0.4 q=34.8 size=       0KiB time=00:00:00.80 bitrate=   0.4kbits/s speed=0.0116x elapsed=0:01:08.98    \nframe=   26 fps=0.4 q=34.8 size=       0KiB time=00:00:00.80 bitrate=   0.4kbits/s speed=0.0115x elapsed=0:01:09.55    \nframe=   26 fps=0.4 q=34.8 size=       0KiB time=00:00:00.80 bitrate=   0.4kbits/s speed=0.0114x elapsed=0:01:10.10    \nframe=   26 fps=0.4 q=34.8 size=       0KiB time=00:00:00.80 bitrate=   0.4kbits/s speed=0.0113x elapsed=0:01:10.62    \nframe=   26 fps=0.4 q=34.8 size=       0KiB time=00:00:00.80 bitrate=   0.4kbits/s speed=0.0112x elapsed=0:01:11.16    \nframe=   26 fps=0.4 q=34.8 size=       0KiB time=00:00:00.80 bitrate=   0.4kbits/s speed=0.0112x elapsed=0:01:11.68    \nframe=   26 fps=0.4 q=34.8 size=       0KiB time=00:00:00.80 bitrate=   0.4kbits/s speed=0.0111x elapsed=0:01:12.21    \nframe=   26 fps=0.4 q=34.8 size=       0KiB time=00:00:00.80 bitrate=   0.4kbits/s speed=0.011x elapsed=0:01:12.76    \nframe=   27 fps=0.4 q=31.9 size=       0KiB time=00:00:00.83 bitrate=   0.4kbits/s speed=0.0114x elapsed=0:01:13.34    \nframe=   27 fps=0.4 q=31.9 size=       0KiB time=00:00:00.83 bitrate=   0.4kbits/s speed=0.0113x elapsed=0:01:13.86    \nframe=   27 fps=0.4 q=31.9 size=       0KiB time=00:00:00.83 bitrate=   0.4kbits/s speed=0.0112x elapsed=0:01:14.37    \nframe=   27 fps=0.4 q=31.9 size=       0KiB time=00:00:00.83 bitrate=   0.4kbits/s speed=0.0111x elapsed=0:01:14.89    \nframe=   27 fps=0.4 q=31.9 size=       0KiB time=00:00:00.83 bitrate=   0.4kbits/s speed=0.0111x elapsed=0:01:15.40    \nframe=   28 fps=0.4 q=34.8 size=       0KiB time=00:00:00.86 bitrate=   0.4kbits/s speed=0.0114x elapsed=0:01:15.93    \nframe=   28 fps=0.4 q=34.8 size=       0KiB time=00:00:00.86 bitrate=   0.4kbits/s speed=0.0113x elapsed=0:01:16.43    \nframe=   28 fps=0.4 q=34.8 size=       0KiB time=00:00:00.86 bitrate=   0.4kbits/s speed=0.0113x elapsed=0:01:16.96    \nframe=   29 fps=0.4 q=31.5 size=       0KiB time=00:00:00.90 bitrate=   0.4kbits/s speed=0.0116x elapsed=0:01:17.48    \nframe=   29 fps=0.4 q=31.5 size=       0KiB time=00:00:00.90 bitrate=   0.4kbits/s speed=0.0115x elapsed=0:01:17.98    \nframe=   30 fps=0.4 q=34.8 size=       0KiB time=00:00:00.93 bitrate=   0.4kbits/s speed=0.0119x elapsed=0:01:18.50    \nframe=   30 fps=0.4 q=34.8 size=       0KiB time=00:00:00.93 bitrate=   0.4kbits/s speed=0.0118x elapsed=0:01:19.02    \nframe=   30 fps=0.4 q=34.8 size=       0KiB time=00:00:00.93 bitrate=   0.4kbits/s speed=0.0117x elapsed=0:01:19.55    \nframe=   31 fps=0.4 q=31.2 size=     256KiB time=00:00:00.96 bitrate=2169.8kbits/s speed=0.0121x elapsed=0:01:20.13    \nframe=   31 fps=0.4 q=31.2 size=     256KiB time=00:00:00.96 bitrate=2169.8kbits/s speed=0.012x elapsed=0:01:20.67    \nframe=   31 fps=0.4 q=31.2 size=     256KiB time=00:00:00.96 bitrate=2169.8kbits/s speed=0.0119x elapsed=0:01:21.21    \nframe=   31 fps=0.4 q=31.2 size=     256KiB time=00:00:00.96 bitrate=2169.8kbits/s speed=0.0118x elapsed=0:01:21.73    \nframe=   31 fps=0.4 q=31.2 size=     256KiB time=00:00:00.96 bitrate=2169.8kbits/s speed=0.0118x elapsed=0:01:22.25    \nframe=   32 fps=0.4 q=33.3 size=     256KiB time=00:00:01.00 bitrate=2097.5kbits/s speed=0.0121x elapsed=0:01:22.77    \nframe=   32 fps=0.4 q=33.3 size=     256KiB time=00:00:01.00 bitrate=2097.5kbits/s speed=0.012x elapsed=0:01:23.28    \nframe=   32 fps=0.4 q=33.3 size=     256KiB time=00:00:01.00 bitrate=2097.5kbits/s speed=0.0119x elapsed=0:01:23.80    \nframe=   32 fps=0.4 q=33.3 size=     256KiB time=00:00:01.00 bitrate=2097.5kbits/s speed=0.0119x elapsed=0:01:24.32    \nframe=   33 fps=0.4 q=34.6 size=     256KiB time=00:00:01.03 bitrate=2029.8kbits/s speed=0.0122x elapsed=0:01:24.87    \nframe=   33 fps=0.4 q=34.6 size=     256KiB time=00:00:01.03 bitrate=2029.8kbits/s speed=0.0121x elapsed=0:01:25.42    \nframe=   33 fps=0.4 q=34.6 size=     256KiB time=00:00:01.03 bitrate=2029.8kbits/s speed=0.012x elapsed=0:01:25.94    \nframe=   33 fps=0.4 q=34.6 size=     256KiB time=00:00:01.03 bitrate=2029.8kbits/s speed=0.012x elapsed=0:01:26.46    \nframe=   33 fps=0.4 q=34.6 size=     256KiB time=00:00:01.03 bitrate=2029.8kbits/s speed=0.0119x elapsed=0:01:26.99    \nframe=   33 fps=0.4 q=34.6 size=     256KiB time=00:00:01.03 bitrate=2029.8kbits/s speed=0.0118x elapsed=0:01:27.49    \nframe=   34 fps=0.4 q=30.9 size=     256KiB time=00:00:01.06 bitrate=1966.4kbits/s speed=0.0121x elapsed=0:01:28.03    \nframe=   34 fps=0.4 q=30.9 size=     256KiB time=00:00:01.06 bitrate=1966.4kbits/s speed=0.012x elapsed=0:01:28.57    \nframe=   34 fps=0.4 q=30.9 size=     256KiB time=00:00:01.06 bitrate=1966.4kbits/s speed=0.012x elapsed=0:01:29.08    \nframe=   34 fps=0.4 q=30.9 size=     256KiB time=00:00:01.06 bitrate=1966.4kbits/s speed=0.0119x elapsed=0:01:29.61    \nframe=   34 fps=0.4 q=30.9 size=     256KiB time=00:00:01.06 bitrate=1966.4kbits/s speed=0.0118x elapsed=0:01:30.12    \nframe=   35 fps=0.4 q=31.1 size=     256KiB time=00:00:01.10 bitrate=1906.8kbits/s speed=0.0121x elapsed=0:01:30.64    \nframe=   35 fps=0.4 q=31.1 size=     256KiB time=00:00:01.10 bitrate=1906.8kbits/s speed=0.0121x elapsed=0:01:31.16    \nframe=   35 fps=0.4 q=31.1 size=     256KiB time=00:00:01.10 bitrate=1906.8kbits/s speed=0.012x elapsed=0:01:31.68    \nframe=   36 fps=0.4 q=34.4 size=     256KiB time=00:00:01.13 bitrate=1850.7kbits/s speed=0.0123x elapsed=0:01:32.23    \nframe=   36 fps=0.4 q=34.4 size=     256KiB time=00:00:01.13 bitrate=1850.7kbits/s speed=0.0122x elapsed=0:01:32.76    \nframe=   36 fps=0.4 q=34.4 size=     256KiB time=00:00:01.13 bitrate=1850.7kbits/s speed=0.0121x elapsed=0:01:33.30    \nframe=   37 fps=0.4 q=31.1 size=     256KiB time=00:00:01.16 bitrate=1797.9kbits/s speed=0.0124x elapsed=0:01:33.84    \nframe=   37 fps=0.4 q=31.1 size=     256KiB time=00:00:01.16 bitrate=1797.9kbits/s speed=0.0124x elapsed=0:01:34.36    \nframe=   38 fps=0.4 q=32.2 size=     256KiB time=00:00:01.20 bitrate=1747.9kbits/s speed=0.0126x elapsed=0:01:34.90    \nframe=   38 fps=0.4 q=32.2 size=     256KiB time=00:00:01.20 bitrate=1747.9kbits/s speed=0.0126x elapsed=0:01:35.44    \nframe=   38 fps=0.4 q=32.2 size=     256KiB time=00:00:01.20 bitrate=1747.9kbits/s speed=0.0125x elapsed=0:01:35.97    \nframe=   38 fps=0.4 q=32.2 size=     256KiB time=00:00:01.20 bitrate=1747.9kbits/s speed=0.0124x elapsed=0:01:36.51    \nframe=   38 fps=0.4 q=32.2 size=     256KiB time=00:00:01.20 bitrate=1747.9kbits/s speed=0.0124x elapsed=0:01:37.03    \nframe=   38 fps=0.4 q=32.2 size=     256KiB time=00:00:01.20 bitrate=1747.9kbits/s speed=0.0123x elapsed=0:01:37.55    \nframe=   39 fps=0.4 q=34.5 size=     256KiB time=00:00:01.23 bitrate=1700.7kbits/s speed=0.0126x elapsed=0:01:38.06    \nframe=   39 fps=0.4 q=34.5 size=     256KiB time=00:00:01.23 bitrate=1700.7kbits/s speed=0.0125x elapsed=0:01:38.57    \nframe=   39 fps=0.4 q=34.5 size=     256KiB time=00:00:01.23 bitrate=1700.7kbits/s speed=0.0124x elapsed=0:01:39.13    \nframe=   39 fps=0.4 q=34.5 size=     256KiB time=00:00:01.23 bitrate=1700.7kbits/s speed=0.0124x elapsed=0:01:39.67    \nframe=   39 fps=0.4 q=34.5 size=     256KiB time=00:00:01.23 bitrate=1700.7kbits/s speed=0.0123x elapsed=0:01:40.19    \nframe=   40 fps=0.4 q=34.4 size=     256KiB time=00:00:01.26 bitrate=1655.9kbits/s speed=0.0126x elapsed=0:01:40.72    \nframe=   40 fps=0.4 q=34.4 size=     256KiB time=00:00:01.26 bitrate=1655.9kbits/s speed=0.0125x elapsed=0:01:41.23    \nframe=   41 fps=0.4 q=30.8 size=     256KiB time=00:00:01.30 bitrate=1613.5kbits/s speed=0.0128x elapsed=0:01:41.75    \nframe=   41 fps=0.4 q=30.8 size=     256KiB time=00:00:01.30 bitrate=1613.5kbits/s speed=0.0127x elapsed=0:01:42.28    \nframe=   42 fps=0.4 q=32.4 size=     256KiB time=00:00:01.33 bitrate=1573.1kbits/s speed=0.013x elapsed=0:01:42.79    \nframe=   42 fps=0.4 q=32.4 size=     256KiB time=00:00:01.33 bitrate=1573.1kbits/s speed=0.0129x elapsed=0:01:43.32    \nframe=   42 fps=0.4 q=32.4 size=     256KiB time=00:00:01.33 bitrate=1573.1kbits/s speed=0.0128x elapsed=0:01:43.84    \nframe=   42 fps=0.4 q=32.4 size=     256KiB time=00:00:01.33 bitrate=1573.1kbits/s speed=0.0128x elapsed=0:01:44.36    \nframe=   42 fps=0.4 q=32.4 size=     256KiB time=00:00:01.33 bitrate=1573.1kbits/s speed=0.0127x elapsed=0:01:44.88    \nframe=   43 fps=0.4 q=33.9 size=     256KiB time=00:00:01.36 bitrate=1534.8kbits/s speed=0.013x elapsed=0:01:45.39    \nframe=   43 fps=0.4 q=33.9 size=     256KiB time=00:00:01.36 bitrate=1534.8kbits/s speed=0.0129x elapsed=0:01:45.92    \nframe=   43 fps=0.4 q=33.9 size=     256KiB time=00:00:01.36 bitrate=1534.8kbits/s speed=0.0128x elapsed=0:01:46.46    \nframe=   43 fps=0.4 q=33.9 size=     256KiB time=00:00:01.36 bitrate=1534.8kbits/s speed=0.0128x elapsed=0:01:46.98    \nframe=   44 fps=0.4 q=34.1 size=     256KiB time=00:00:01.40 bitrate=1498.2kbits/s speed=0.013x elapsed=0:01:47.51    \nframe=   44 fps=0.4 q=34.1 size=     256KiB time=00:00:01.40 bitrate=1498.2kbits/s speed=0.013x elapsed=0:01:48.03    \nframe=   44 fps=0.4 q=34.1 size=     256KiB time=00:00:01.40 bitrate=1498.2kbits/s speed=0.0129x elapsed=0:01:48.56    \nframe=   44 fps=0.4 q=34.1 size=     256KiB time=00:00:01.40 bitrate=1498.2kbits/s speed=0.0128x elapsed=0:01:49.07    \nframe=   45 fps=0.4 q=30.6 size=     256KiB time=00:00:01.43 bitrate=1463.4kbits/s speed=0.0131x elapsed=0:01:49.59    \nframe=   45 fps=0.4 q=30.6 size=     256KiB time=00:00:01.43 bitrate=1463.4kbits/s speed=0.013x elapsed=0:01:50.11    \nframe=   45 fps=0.4 q=30.6 size=     256KiB time=00:00:01.43 bitrate=1463.4kbits/s speed=0.013x elapsed=0:01:50.63    \nframe=   45 fps=0.4 q=30.6 size=     256KiB time=00:00:01.43 bitrate=1463.4kbits/s speed=0.0129x elapsed=0:01:51.16    \nframe=   45 fps=0.4 q=30.6 size=     256KiB time=00:00:01.43 bitrate=1463.4kbits/s speed=0.0128x elapsed=0:01:51.69    \nframe=   46 fps=0.4 q=31.8 size=     256KiB time=00:00:01.46 bitrate=1430.1kbits/s speed=0.0131x elapsed=0:01:52.20    \nframe=   46 fps=0.4 q=31.8 size=     256KiB time=00:00:01.46 bitrate=1430.1kbits/s speed=0.013x elapsed=0:01:52.71    \nframe=   47 fps=0.4 q=33.9 size=     256KiB time=00:00:01.50 bitrate=1398.3kbits/s speed=0.0132x elapsed=0:01:53.24    \nframe=   47 fps=0.4 q=33.9 size=     256KiB time=00:00:01.50 bitrate=1398.3kbits/s speed=0.0132x elapsed=0:01:53.78    \nframe=   47 fps=0.4 q=33.9 size=     256KiB time=00:00:01.50 bitrate=1398.3kbits/s speed=0.0131x elapsed=0:01:54.30    \nframe=   48 fps=0.4 q=30.8 size=     256KiB time=00:00:01.53 bitrate=1367.9kbits/s speed=0.0134x elapsed=0:01:54.81    \nframe=   48 fps=0.4 q=30.8 size=     256KiB time=00:00:01.53 bitrate=1367.9kbits/s speed=0.0133x elapsed=0:01:55.33    \nframe=   48 fps=0.4 q=30.8 size=     256KiB time=00:00:01.53 bitrate=1367.9kbits/s speed=0.0132x elapsed=0:01:55.84    \nframe=   48 fps=0.4 q=30.8 size=     256KiB time=00:00:01.53 bitrate=1367.9kbits/s speed=0.0132x elapsed=0:01:56.36    \nframe=   48 fps=0.4 q=30.8 size=     256KiB time=00:00:01.53 bitrate=1367.9kbits/s speed=0.0131x elapsed=0:01:56.90    \nframe=   48 fps=0.4 q=30.8 size=     256KiB time=00:00:01.53 bitrate=1367.9kbits/s speed=0.0131x elapsed=0:01:57.41    \nframe=   49 fps=0.4 q=31.1 size=     256KiB time=00:00:01.56 bitrate=1338.8kbits/s speed=0.0133x elapsed=0:01:57.93    \nframe=   49 fps=0.4 q=31.1 size=     256KiB time=00:00:01.56 bitrate=1338.8kbits/s speed=0.0132x elapsed=0:01:58.45    \nframe=   49 fps=0.4 q=31.1 size=     256KiB time=00:00:01.56 bitrate=1338.8kbits/s speed=0.0132x elapsed=0:01:58.99    \nframe=   50 fps=0.4 q=34.6 size=     256KiB time=00:00:01.60 bitrate=1310.9kbits/s speed=0.0134x elapsed=0:01:59.50    \nframe=   51 fps=0.4 q=30.9 size=     256KiB time=00:00:01.63 bitrate=1284.2kbits/s speed=0.0136x elapsed=0:02:00.01    \nframe=   51 fps=0.4 q=30.9 size=     256KiB time=00:00:01.63 bitrate=1284.2kbits/s speed=0.0135x elapsed=0:02:00.54    \nframe=   51 fps=0.4 q=30.9 size=     256KiB time=00:00:01.63 bitrate=1284.2kbits/s speed=0.0135x elapsed=0:02:01.09    \nframe=   51 fps=0.4 q=30.9 size=     256KiB time=00:00:01.63 bitrate=1284.2kbits/s speed=0.0134x elapsed=0:02:01.66    \nframe=   51 fps=0.4 q=30.9 size=     256KiB time=00:00:01.63 bitrate=1284.2kbits/s speed=0.0134x elapsed=0:02:02.29    \nframe=   51 fps=0.4 q=30.9 size=     256KiB time=00:00:01.63 bitrate=1284.2kbits/s speed=0.0133x elapsed=0:02:02.87    \nframe=   51 fps=0.4 q=30.9 size=     256KiB time=00:00:01.63 bitrate=1284.2kbits/s speed=0.0132x elapsed=0:02:03.41    \nframe=   52 fps=0.4 q=32.5 size=     256KiB time=00:00:01.66 bitrate=1258.5kbits/s speed=0.0134x elapsed=0:02:03.96    \nframe=   52 fps=0.4 q=32.5 size=     256KiB time=00:00:01.66 bitrate=1258.5kbits/s speed=0.0134x elapsed=0:02:04.48    \nframe=   52 fps=0.4 q=32.5 size=     256KiB time=00:00:01.66 bitrate=1258.5kbits/s speed=0.0133x elapsed=0:02:05.04    \nframe=   52 fps=0.4 q=32.5 size=     256KiB time=00:00:01.66 bitrate=1258.5kbits/s speed=0.0133x elapsed=0:02:05.60    \nframe=   52 fps=0.4 q=32.5 size=     256KiB time=00:00:01.66 bitrate=1258.5kbits/s speed=0.0132x elapsed=0:02:06.11    \nframe=   52 fps=0.4 q=32.5 size=     256KiB time=00:00:01.66 bitrate=1258.5kbits/s speed=0.0132x elapsed=0:02:06.62    \nframe=   52 fps=0.4 q=32.5 size=     256KiB time=00:00:01.66 bitrate=1258.5kbits/s speed=0.0131x elapsed=0:02:07.14    \nframe=   52 fps=0.4 q=32.5 size=     256KiB time=00:00:01.66 bitrate=1258.5kbits/s speed=0.0131x elapsed=0:02:07.65    \nframe=   53 fps=0.4 q=34.6 size=     256KiB time=00:00:01.70 bitrate=1233.8kbits/s speed=0.0133x elapsed=0:02:08.19    \nframe=   53 fps=0.4 q=34.6 size=     256KiB time=00:00:01.70 bitrate=1233.8kbits/s speed=0.0132x elapsed=0:02:08.76    \nframe=   54 fps=0.4 q=34.3 size=     256KiB time=00:00:01.73 bitrate=1210.1kbits/s speed=0.0134x elapsed=0:02:09.28    \nframe=   54 fps=0.4 q=34.3 size=     256KiB time=00:00:01.73 bitrate=1210.1kbits/s speed=0.0134x elapsed=0:02:09.80    \nframe=   54 fps=0.4 q=34.3 size=     256KiB time=00:00:01.73 bitrate=1210.1kbits/s speed=0.0133x elapsed=0:02:10.34    \nframe=   54 fps=0.4 q=34.3 size=     256KiB time=00:00:01.73 bitrate=1210.1kbits/s speed=0.0132x elapsed=0:02:10.86    \nframe=   55 fps=0.4 q=30.7 size=     256KiB time=00:00:01.76 bitrate=1187.3kbits/s speed=0.0134x elapsed=0:02:11.39    \nframe=   55 fps=0.4 q=30.7 size=     256KiB time=00:00:01.76 bitrate=1187.3kbits/s speed=0.0134x elapsed=0:02:11.92    \nframe=   55 fps=0.4 q=30.7 size=     256KiB time=00:00:01.76 bitrate=1187.3kbits/s speed=0.0133x elapsed=0:02:12.45    \nframe=   55 fps=0.4 q=30.7 size=     256KiB time=00:00:01.76 bitrate=1187.3kbits/s speed=0.0133x elapsed=0:02:12.98    \nframe=   55 fps=0.4 q=30.7 size=     256KiB time=00:00:01.76 bitrate=1187.3kbits/s speed=0.0132x elapsed=0:02:13.53    \nframe=   55 fps=0.4 q=30.7 size=     256KiB time=00:00:01.76 bitrate=1187.3kbits/s speed=0.0132x elapsed=0:02:14.07    \nframe=   55 fps=0.4 q=30.7 size=     256KiB time=00:00:01.76 bitrate=1187.3kbits/s speed=0.0131x elapsed=0:02:14.57    \nframe=   55 fps=0.4 q=30.7 size=     256KiB time=00:00:01.76 bitrate=1187.3kbits/s speed=0.0131x elapsed=0:02:15.11    \nframe=   55 fps=0.4 q=30.7 size=     256KiB time=00:00:01.76 bitrate=1187.3kbits/s speed=0.013x elapsed=0:02:15.64    \nframe=   56 fps=0.4 q=32.2 size=     256KiB time=00:00:01.80 bitrate=1165.3kbits/s speed=0.0132x elapsed=0:02:16.17    \nframe=   56 fps=0.4 q=32.2 size=     256KiB time=00:00:01.80 bitrate=1165.3kbits/s speed=0.0132x elapsed=0:02:16.72    \nframe=   56 fps=0.4 q=32.2 size=     256KiB time=00:00:01.80 bitrate=1165.3kbits/s speed=0.0131x elapsed=0:02:17.25    \nframe=   56 fps=0.4 q=32.2 size=     256KiB time=00:00:01.80 bitrate=1165.3kbits/s speed=0.0131x elapsed=0:02:17.79    \nframe=   56 fps=0.4 q=32.2 size=     256KiB time=00:00:01.80 bitrate=1165.3kbits/s speed=0.013x elapsed=0:02:18.40    \nframe=   56 fps=0.4 q=32.2 size=     256KiB time=00:00:01.80 bitrate=1165.3kbits/s speed=0.013x elapsed=0:02:18.95    \nframe=   57 fps=0.4 q=34.1 size=     512KiB time=00:00:01.83 bitrate=2288.0kbits/s speed=0.0131x elapsed=0:02:19.52    \nframe=   57 fps=0.4 q=34.1 size=     512KiB time=00:00:01.83 bitrate=2288.0kbits/s speed=0.0131x elapsed=0:02:20.09    \nframe=   57 fps=0.4 q=34.1 size=     512KiB time=00:00:01.83 bitrate=2288.0kbits/s speed=0.013x elapsed=0:02:20.61    \nframe=   57 fps=0.4 q=34.1 size=     512KiB time=00:00:01.83 bitrate=2288.0kbits/s speed=0.013x elapsed=0:02:21.15    \nframe=   57 fps=0.4 q=34.1 size=     512KiB time=00:00:01.83 bitrate=2288.0kbits/s speed=0.0129x elapsed=0:02:21.69    \nframe=   57 fps=0.4 q=34.1 size=     512KiB time=00:00:01.83 bitrate=2288.0kbits/s speed=0.0129x elapsed=0:02:22.29    \nframe=   57 fps=0.4 q=34.1 size=     512KiB time=00:00:01.83 bitrate=2288.0kbits/s speed=0.0128x elapsed=0:02:22.81    \nframe=   58 fps=0.4 q=30.3 size=     512KiB time=00:00:01.86 bitrate=2247.1kbits/s speed=0.013x elapsed=0:02:23.33    \nframe=   58 fps=0.4 q=30.3 size=     512KiB time=00:00:01.86 bitrate=2247.1kbits/s speed=0.013x elapsed=0:02:23.85    \nframe=   58 fps=0.4 q=30.3 size=     512KiB time=00:00:01.86 bitrate=2247.1kbits/s speed=0.0129x elapsed=0:02:24.43    \nframe=   58 fps=0.4 q=30.3 size=     512KiB time=00:00:01.86 bitrate=2247.1kbits/s speed=0.0129x elapsed=0:02:24.97    \nframe=   58 fps=0.4 q=30.3 size=     512KiB time=00:00:01.86 bitrate=2247.1kbits/s speed=0.0128x elapsed=0:02:25.52    \nframe=   58 fps=0.4 q=30.3 size=     512KiB time=00:00:01.86 bitrate=2247.1kbits/s speed=0.0128x elapsed=0:02:26.10    \nframe=   58 fps=0.4 q=30.3 size=     512KiB time=00:00:01.86 bitrate=2247.1kbits/s speed=0.0127x elapsed=0:02:26.67    \nframe=   58 fps=0.4 q=30.3 size=     512KiB time=00:00:01.86 bitrate=2247.1kbits/s speed=0.0127x elapsed=0:02:27.20    \nframe=   58 fps=0.4 q=30.3 size=     512KiB time=00:00:01.86 bitrate=2247.1kbits/s speed=0.0126x elapsed=0:02:27.75    \nframe=   59 fps=0.4 q=32.9 size=     512KiB time=00:00:01.90 bitrate=2207.7kbits/s speed=0.0128x elapsed=0:02:28.28    \nframe=   59 fps=0.4 q=32.9 size=     512KiB time=00:00:01.90 bitrate=2207.7kbits/s speed=0.0128x elapsed=0:02:28.81    \nframe=   59 fps=0.4 q=32.9 size=     512KiB time=00:00:01.90 bitrate=2207.7kbits/s speed=0.0127x elapsed=0:02:29.37    \nframe=   59 fps=0.4 q=32.9 size=     512KiB time=00:00:01.90 bitrate=2207.7kbits/s speed=0.0127x elapsed=0:02:29.94    \nframe=   59 fps=0.4 q=32.9 size=     512KiB time=00:00:01.90 bitrate=2207.7kbits/s speed=0.0126x elapsed=0:02:30.46    \nframe=   60 fps=0.4 q=34.3 size=     512KiB time=00:00:01.93 bitrate=2169.7kbits/s speed=0.0128x elapsed=0:02:31.03    \nframe=   61 fps=0.4 q=34.0 size=     512KiB time=00:00:01.96 bitrate=2132.9kbits/s speed=0.013x elapsed=0:02:31.62    \nframe=   61 fps=0.4 q=34.0 size=     512KiB time=00:00:01.96 bitrate=2132.9kbits/s speed=0.0129x elapsed=0:02:32.16    \nframe=   61 fps=0.4 q=34.0 size=     512KiB time=00:00:01.96 bitrate=2132.9kbits/s speed=0.0129x elapsed=0:02:32.68    \nframe=   61 fps=0.4 q=34.0 size=     512KiB time=00:00:01.96 bitrate=2132.9kbits/s speed=0.0128x elapsed=0:02:33.21    \nframe=   61 fps=0.4 q=34.0 size=     512KiB time=00:00:01.96 bitrate=2132.9kbits/s speed=0.0128x elapsed=0:02:33.77    \nframe=   61 fps=0.4 q=34.0 size=     512KiB time=00:00:01.96 bitrate=2132.9kbits/s speed=0.0127x elapsed=0:02:34.34    \nframe=   61 fps=0.4 q=34.0 size=     512KiB time=00:00:01.96 bitrate=2132.9kbits/s speed=0.0127x elapsed=0:02:34.88    \nframe=   61 fps=0.4 q=34.0 size=     512KiB time=00:00:01.96 bitrate=2132.9kbits/s speed=0.0127x elapsed=0:02:35.42    \nframe=   62 fps=0.4 q=34.6 size=     512KiB time=00:00:02.00 bitrate=2097.3kbits/s speed=0.0128x elapsed=0:02:35.99    \nframe=   62 fps=0.4 q=34.6 size=     512KiB time=00:00:02.00 bitrate=2097.3kbits/s speed=0.0128x elapsed=0:02:36.57    \nframe=   62 fps=0.4 q=34.6 size=     512KiB time=00:00:02.00 bitrate=2097.3kbits/s speed=0.0127x elapsed=0:02:37.13    \nframe=   63 fps=0.4 q=30.4 size=     512KiB time=00:00:02.03 bitrate=2062.9kbits/s speed=0.0129x elapsed=0:02:37.68    \nframe=   63 fps=0.4 q=30.4 size=     512KiB time=00:00:02.03 bitrate=2062.9kbits/s speed=0.0129x elapsed=0:02:38.22    \nframe=   63 fps=0.4 q=30.4 size=     512KiB time=00:00:02.03 bitrate=2062.9kbits/s speed=0.0128x elapsed=0:02:38.80    \nframe=   63 fps=0.4 q=30.4 size=     512KiB time=00:00:02.03 bitrate=2062.9kbits/s speed=0.0128x elapsed=0:02:39.35    \nframe=   63 fps=0.4 q=30.4 size=     512KiB time=00:00:02.03 bitrate=2062.9kbits/s speed=0.0127x elapsed=0:02:39.99    \nframe=   63 fps=0.4 q=30.4 size=     512KiB time=00:00:02.03 bitrate=2062.9kbits/s speed=0.0127x elapsed=0:02:40.54    \nframe=   63 fps=0.4 q=30.4 size=     512KiB time=00:00:02.03 bitrate=2062.9kbits/s speed=0.0126x elapsed=0:02:41.15    \nframe=   63 fps=0.4 q=30.4 size=     512KiB time=00:00:02.03 bitrate=2062.9kbits/s speed=0.0126x elapsed=0:02:41.74    \nframe=   63 fps=0.4 q=30.4 size=     512KiB time=00:00:02.03 bitrate=2062.9kbits/s speed=0.0125x elapsed=0:02:42.36    \nframe=   63 fps=0.4 q=30.4 size=     512KiB time=00:00:02.03 bitrate=2062.9kbits/s speed=0.0125x elapsed=0:02:42.91    \nframe=   64 fps=0.4 q=34.4 size=     512KiB time=00:00:02.06 bitrate=2029.7kbits/s speed=0.0126x elapsed=0:02:43.46    \nframe=   64 fps=0.4 q=34.4 size=     512KiB time=00:00:02.06 bitrate=2029.7kbits/s speed=0.0126x elapsed=0:02:44.03    \nframe=   64 fps=0.4 q=34.4 size=     512KiB time=00:00:02.06 bitrate=2029.7kbits/s speed=0.0126x elapsed=0:02:44.62    \nframe=   64 fps=0.4 q=34.4 size=     512KiB time=00:00:02.06 bitrate=2029.7kbits/s speed=0.0125x elapsed=0:02:45.13    \nframe=   65 fps=0.4 q=30.6 size=     512KiB time=00:00:02.10 bitrate=1997.5kbits/s speed=0.0127x elapsed=0:02:45.65    \nframe=   66 fps=0.4 q=32.9 size=     512KiB time=00:00:02.13 bitrate=1966.2kbits/s speed=0.0128x elapsed=0:02:46.18    \nframe=   66 fps=0.4 q=32.9 size=     512KiB time=00:00:02.13 bitrate=1966.2kbits/s speed=0.0128x elapsed=0:02:46.68    \nframe=   66 fps=0.4 q=32.9 size=     512KiB time=00:00:02.13 bitrate=1966.2kbits/s speed=0.0128x elapsed=0:02:47.21    \nframe=   67 fps=0.4 q=34.7 size=     512KiB time=00:00:02.16 bitrate=1936.0kbits/s speed=0.0129x elapsed=0:02:47.76    \nframe=   67 fps=0.4 q=34.7 size=     512KiB time=00:00:02.16 bitrate=1936.0kbits/s speed=0.0129x elapsed=0:02:48.28    \nframe=   67 fps=0.4 q=34.7 size=     512KiB time=00:00:02.16 bitrate=1936.0kbits/s speed=0.0128x elapsed=0:02:48.81    \nframe=   68 fps=0.4 q=34.8 size=     512KiB time=00:00:02.20 bitrate=1906.7kbits/s speed=0.013x elapsed=0:02:49.32    \nframe=   69 fps=0.4 q=30.7 size=     512KiB time=00:00:02.23 bitrate=1878.2kbits/s speed=0.0131x elapsed=0:02:49.85    \nframe=   69 fps=0.4 q=30.7 size=     512KiB time=00:00:02.23 bitrate=1878.2kbits/s speed=0.0131x elapsed=0:02:50.42    \nframe=   69 fps=0.4 q=30.7 size=     512KiB time=00:00:02.23 bitrate=1878.2kbits/s speed=0.0131x elapsed=0:02:50.94    \nframe=   69 fps=0.4 q=30.7 size=     512KiB time=00:00:02.23 bitrate=1878.2kbits/s speed=0.013x elapsed=0:02:51.46    \nframe=   70 fps=0.4 q=32.8 size=     512KiB time=00:00:02.26 bitrate=1850.6kbits/s speed=0.0132x elapsed=0:02:51.98    \nframe=   70 fps=0.4 q=32.8 size=     512KiB time=00:00:02.26 bitrate=1850.6kbits/s speed=0.0131x elapsed=0:02:52.50    \nframe=   70 fps=0.4 q=32.8 size=     512KiB time=00:00:02.26 bitrate=1850.6kbits/s speed=0.0131x elapsed=0:02:53.03    \nframe=   71 fps=0.4 q=34.4 size=     512KiB time=00:00:02.30 bitrate=1823.8kbits/s speed=0.0133x elapsed=0:02:53.58    \nframe=   71 fps=0.4 q=34.4 size=     512KiB time=00:00:02.30 bitrate=1823.8kbits/s speed=0.0132x elapsed=0:02:54.14    \nframe=   72 fps=0.4 q=34.2 size=     512KiB time=00:00:02.33 bitrate=1797.7kbits/s speed=0.0134x elapsed=0:02:54.66    \nframe=   72 fps=0.4 q=34.2 size=     512KiB time=00:00:02.33 bitrate=1797.7kbits/s speed=0.0133x elapsed=0:02:55.17    \nframe=   73 fps=0.4 q=30.0 size=     512KiB time=00:00:02.36 bitrate=1772.4kbits/s speed=0.0135x elapsed=0:02:55.69    \nframe=   73 fps=0.4 q=30.0 size=     512KiB time=00:00:02.36 bitrate=1772.4kbits/s speed=0.0134x elapsed=0:02:56.22    \nframe=   74 fps=0.4 q=32.3 size=     512KiB time=00:00:02.40 bitrate=1747.8kbits/s speed=0.0136x elapsed=0:02:56.73    \nframe=   74 fps=0.4 q=32.3 size=     512KiB time=00:00:02.40 bitrate=1747.8kbits/s speed=0.0135x elapsed=0:02:57.28    \nframe=   74 fps=0.4 q=32.3 size=     512KiB time=00:00:02.40 bitrate=1747.8kbits/s speed=0.0135x elapsed=0:02:57.80    \nframe=   74 fps=0.4 q=32.3 size=     512KiB time=00:00:02.40 bitrate=1747.8kbits/s speed=0.0135x elapsed=0:02:58.31    \nframe=   75 fps=0.4 q=33.9 size=     512KiB time=00:00:02.43 bitrate=1723.8kbits/s speed=0.0136x elapsed=0:02:58.83    \nframe=   75 fps=0.4 q=33.9 size=     512KiB time=00:00:02.43 bitrate=1723.8kbits/s speed=0.0136x elapsed=0:02:59.34    \nframe=   76 fps=0.4 q=34.1 size=     512KiB time=00:00:02.46 bitrate=1700.5kbits/s speed=0.0137x elapsed=0:02:59.86    \nframe=   76 fps=0.4 q=34.1 size=     512KiB time=00:00:02.46 bitrate=1700.5kbits/s speed=0.0137x elapsed=0:03:00.38    \nframe=   76 fps=0.4 q=34.1 size=     512KiB time=00:00:02.46 bitrate=1700.5kbits/s speed=0.0136x elapsed=0:03:00.90    \nframe=   77 fps=0.4 q=30.6 size=     512KiB time=00:00:02.50 bitrate=1677.9kbits/s speed=0.0138x elapsed=0:03:01.42    \nframe=   78 fps=0.4 q=32.3 size=     512KiB time=00:00:02.53 bitrate=1655.8kbits/s speed=0.0139x elapsed=0:03:01.93    \nframe=   78 fps=0.4 q=32.3 size=     512KiB time=00:00:02.53 bitrate=1655.8kbits/s speed=0.0139x elapsed=0:03:02.47    \nframe=   78 fps=0.4 q=32.3 size=     512KiB time=00:00:02.53 bitrate=1655.8kbits/s speed=0.0138x elapsed=0:03:02.98    \nframe=   78 fps=0.4 q=32.3 size=     512KiB time=00:00:02.53 bitrate=1655.8kbits/s speed=0.0138x elapsed=0:03:03.52    \nframe=   79 fps=0.4 q=34.2 size=     512KiB time=00:00:02.56 bitrate=1634.3kbits/s speed=0.0139x elapsed=0:03:04.05    \nframe=   80 fps=0.4 q=34.3 size=     512KiB time=00:00:02.60 bitrate=1613.3kbits/s speed=0.0141x elapsed=0:03:04.57    \nframe=   80 fps=0.4 q=34.3 size=     512KiB time=00:00:02.60 bitrate=1613.3kbits/s speed=0.014x elapsed=0:03:05.11    \nframe=   80 fps=0.4 q=34.3 size=     512KiB time=00:00:02.60 bitrate=1613.3kbits/s speed=0.014x elapsed=0:03:05.63    \nframe=   81 fps=0.4 q=30.9 size=     768KiB time=00:00:02.63 bitrate=2389.3kbits/s speed=0.0141x elapsed=0:03:06.15    \nframe=   82 fps=0.4 q=32.7 size=     768KiB time=00:00:02.66 bitrate=2359.4kbits/s speed=0.0143x elapsed=0:03:06.67    \nframe=   82 fps=0.4 q=32.7 size=     768KiB time=00:00:02.66 bitrate=2359.4kbits/s speed=0.0142x elapsed=0:03:07.20    \nframe=   82 fps=0.4 q=32.7 size=     768KiB time=00:00:02.66 bitrate=2359.4kbits/s speed=0.0142x elapsed=0:03:07.73    \nframe=   82 fps=0.4 q=32.7 size=     768KiB time=00:00:02.66 bitrate=2359.4kbits/s speed=0.0142x elapsed=0:03:08.24    \nframe=   83 fps=0.4 q=34.7 size=     768KiB time=00:00:02.70 bitrate=2330.3kbits/s speed=0.0143x elapsed=0:03:08.78    \nframe=   83 fps=0.4 q=34.7 size=     768KiB time=00:00:02.70 bitrate=2330.3kbits/s speed=0.0143x elapsed=0:03:09.35    \nframe=   84 fps=0.4 q=34.8 size=     768KiB time=00:00:02.70 bitrate=2330.3kbits/s speed=0.0142x elapsed=0:03:09.87    \nframe=   84 fps=0.4 q=34.8 size=     768KiB time=00:00:02.73 bitrate=2301.9kbits/s speed=0.0144x elapsed=0:03:10.41    \nframe=   84 fps=0.4 q=34.8 size=     768KiB time=00:00:02.73 bitrate=2301.9kbits/s speed=0.0143x elapsed=0:03:10.92    \nframe=   85 fps=0.4 q=30.8 size=     768KiB time=00:00:02.76 bitrate=2274.1kbits/s speed=0.0145x elapsed=0:03:11.43    \nframe=   85 fps=0.4 q=30.8 size=     768KiB time=00:00:02.76 bitrate=2274.1kbits/s speed=0.0144x elapsed=0:03:11.96    \nframe=   86 fps=0.4 q=34.8 size=     768KiB time=00:00:02.80 bitrate=2247.1kbits/s speed=0.0145x elapsed=0:03:12.47    \nframe=   86 fps=0.4 q=34.8 size=     768KiB time=00:00:02.80 bitrate=2247.1kbits/s speed=0.0145x elapsed=0:03:12.98    \nframe=   86 fps=0.4 q=34.8 size=     768KiB time=00:00:02.80 bitrate=2247.1kbits/s speed=0.0145x elapsed=0:03:13.51    \nframe=   86 fps=0.4 q=34.8 size=     768KiB time=00:00:02.80 bitrate=2247.1kbits/s speed=0.0144x elapsed=0:03:14.03    \nframe=   87 fps=0.4 q=30.5 size=     768KiB time=00:00:02.83 bitrate=2220.6kbits/s speed=0.0146x elapsed=0:03:14.54    \nframe=   87 fps=0.4 q=30.5 size=     768KiB time=00:00:02.83 bitrate=2220.6kbits/s speed=0.0145x elapsed=0:03:15.06    \nframe=   87 fps=0.4 q=30.5 size=     768KiB time=00:00:02.83 bitrate=2220.6kbits/s speed=0.0145x elapsed=0:03:15.62    \nframe=   87 fps=0.4 q=30.5 size=     768KiB time=00:00:02.83 bitrate=2220.6kbits/s speed=0.0144x elapsed=0:03:16.17    \nframe=   88 fps=0.4 q=32.8 size=     768KiB time=00:00:02.86 bitrate=2194.8kbits/s speed=0.0146x elapsed=0:03:16.68    \nframe=   88 fps=0.4 q=32.8 size=     768KiB time=00:00:02.86 bitrate=2194.8kbits/s speed=0.0145x elapsed=0:03:17.20    \nframe=   89 fps=0.5 q=34.4 size=     768KiB time=00:00:02.90 bitrate=2169.6kbits/s speed=0.0147x elapsed=0:03:17.73    \nframe=   90 fps=0.5 q=34.5 size=     768KiB time=00:00:02.93 bitrate=2144.9kbits/s speed=0.0148x elapsed=0:03:18.26    \nframe=   90 fps=0.5 q=34.5 size=     768KiB time=00:00:02.93 bitrate=2144.9kbits/s speed=0.0148x elapsed=0:03:18.78    \nframe=   90 fps=0.5 q=34.5 size=     768KiB time=00:00:02.93 bitrate=2144.9kbits/s speed=0.0147x elapsed=0:03:19.30    \nframe=   90 fps=0.5 q=34.5 size=     768KiB time=00:00:02.93 bitrate=2144.9kbits/s speed=0.0147x elapsed=0:03:19.81    \nframe=   90 fps=0.4 q=34.5 size=     768KiB time=00:00:02.93 bitrate=2144.9kbits/s speed=0.0146x elapsed=0:03:20.35    \nframe=   90 fps=0.4 q=34.5 size=     768KiB time=00:00:02.93 bitrate=2144.9kbits/s speed=0.0146x elapsed=0:03:20.87    \nframe=   90 fps=0.4 q=34.5 size=     768KiB time=00:00:02.93 bitrate=2144.9kbits/s speed=0.0146x elapsed=0:03:21.38    \nframe=   91 fps=0.5 q=30.6 size=     768KiB time=00:00:02.96 bitrate=2120.8kbits/s speed=0.0147x elapsed=0:03:21.90    \nframe=   92 fps=0.5 q=31.8 size=     768KiB time=00:00:03.00 bitrate=2097.3kbits/s speed=0.0148x elapsed=0:03:22.42    \nframe=   92 fps=0.5 q=31.8 size=     768KiB time=00:00:03.00 bitrate=2097.3kbits/s speed=0.0148x elapsed=0:03:23.00    \nframe=   92 fps=0.5 q=31.8 size=     768KiB time=00:00:03.00 bitrate=2097.3kbits/s speed=0.0147x elapsed=0:03:23.58    \nframe=   92 fps=0.5 q=31.8 size=     768KiB time=00:00:03.00 bitrate=2097.3kbits/s speed=0.0147x elapsed=0:03:24.11    \nframe=   92 fps=0.4 q=31.8 size=     768KiB time=00:00:03.00 bitrate=2097.3kbits/s speed=0.0147x elapsed=0:03:24.64    \nframe=   92 fps=0.4 q=31.8 size=     768KiB time=00:00:03.00 bitrate=2097.3kbits/s speed=0.0146x elapsed=0:03:25.17    \nframe=   92 fps=0.4 q=31.8 size=     768KiB time=00:00:03.00 bitrate=2097.3kbits/s speed=0.0146x elapsed=0:03:25.81    \nframe=   92 fps=0.4 q=31.8 size=     768KiB time=00:00:03.00 bitrate=2097.3kbits/s speed=0.0145x elapsed=0:03:26.49    \nframe=   92 fps=0.4 q=31.8 size=     768KiB time=00:00:03.00 bitrate=2097.3kbits/s speed=0.0145x elapsed=0:03:27.10    \nframe=   92 fps=0.4 q=31.8 size=     768KiB time=00:00:03.00 bitrate=2097.3kbits/s speed=0.0144x elapsed=0:03:27.65    \nframe=   92 fps=0.4 q=31.8 size=     768KiB time=00:00:03.00 bitrate=2097.3kbits/s speed=0.0144x elapsed=0:03:28.22    \nframe=   92 fps=0.4 q=31.8 size=     768KiB time=00:00:03.00 bitrate=2097.3kbits/s speed=0.0144x elapsed=0:03:28.79    \nframe=   93 fps=0.4 q=34.5 size=     768KiB time=00:00:03.03 bitrate=2074.2kbits/s speed=0.0145x elapsed=0:03:29.31    \nframe=   93 fps=0.4 q=34.5 size=     768KiB time=00:00:03.03 bitrate=2074.2kbits/s speed=0.0145x elapsed=0:03:29.83    \nframe=   93 fps=0.4 q=34.5 size=     768KiB time=00:00:03.03 bitrate=2074.2kbits/s speed=0.0144x elapsed=0:03:30.37    \nframe=   93 fps=0.4 q=34.5 size=     768KiB time=00:00:03.03 bitrate=2074.2kbits/s speed=0.0144x elapsed=0:03:30.93    \nframe=   93 fps=0.4 q=34.5 size=     768KiB time=00:00:03.03 bitrate=2074.2kbits/s speed=0.0143x elapsed=0:03:31.53    \nframe=   93 fps=0.4 q=34.5 size=     768KiB time=00:00:03.03 bitrate=2074.2kbits/s speed=0.0143x elapsed=0:03:32.09    \nframe=   93 fps=0.4 q=34.5 size=     768KiB time=00:00:03.03 bitrate=2074.2kbits/s speed=0.0143x elapsed=0:03:32.64    \nframe=   93 fps=0.4 q=34.5 size=     768KiB time=00:00:03.03 bitrate=2074.2kbits/s speed=0.0142x elapsed=0:03:33.15    \nframe=   94 fps=0.4 q=30.6 size=     768KiB time=00:00:03.06 bitrate=2051.7kbits/s speed=0.0144x elapsed=0:03:33.70    \nframe=   95 fps=0.4 q=33.0 size=     768KiB time=00:00:03.10 bitrate=2029.6kbits/s speed=0.0145x elapsed=0:03:34.22    \nframe=   95 fps=0.4 q=33.0 size=     768KiB time=00:00:03.10 bitrate=2029.6kbits/s speed=0.0144x elapsed=0:03:34.74    \nframe=   95 fps=0.4 q=33.0 size=     768KiB time=00:00:03.10 bitrate=2029.6kbits/s speed=0.0144x elapsed=0:03:35.26    \nframe=   95 fps=0.4 q=33.0 size=     768KiB time=00:00:03.10 bitrate=2029.6kbits/s speed=0.0144x elapsed=0:03:35.81    \nframe=   95 fps=0.4 q=33.0 size=     768KiB time=00:00:03.10 bitrate=2029.6kbits/s speed=0.0143x elapsed=0:03:36.34    \nframe=   95 fps=0.4 q=33.0 size=     768KiB time=00:00:03.10 bitrate=2029.6kbits/s speed=0.0143x elapsed=0:03:36.89    \nframe=   95 fps=0.4 q=33.0 size=     768KiB time=00:00:03.10 bitrate=2029.6kbits/s speed=0.0143x elapsed=0:03:37.41    \nframe=   95 fps=0.4 q=33.0 size=     768KiB time=00:00:03.10 bitrate=2029.6kbits/s speed=0.0142x elapsed=0:03:37.97    \nframe=   96 fps=0.4 q=34.7 size=     768KiB time=00:00:03.13 bitrate=2008.0kbits/s speed=0.0143x elapsed=0:03:38.54    \nframe=   97 fps=0.4 q=35.0 size=     768KiB time=00:00:03.16 bitrate=1986.9kbits/s speed=0.0145x elapsed=0:03:39.07    \nframe=   97 fps=0.4 q=35.0 size=     768KiB time=00:00:03.16 bitrate=1986.9kbits/s speed=0.0144x elapsed=0:03:39.57    \nframe=   97 fps=0.4 q=35.0 size=     768KiB time=00:00:03.16 bitrate=1986.9kbits/s speed=0.0144x elapsed=0:03:40.10    \nframe=   98 fps=0.4 q=31.1 size=     768KiB time=00:00:03.20 bitrate=1966.2kbits/s speed=0.0145x elapsed=0:03:40.63    \nframe=   98 fps=0.4 q=31.1 size=     768KiB time=00:00:03.20 bitrate=1966.2kbits/s speed=0.0145x elapsed=0:03:41.15    \nframe=   98 fps=0.4 q=31.1 size=     768KiB time=00:00:03.20 bitrate=1966.2kbits/s speed=0.0144x elapsed=0:03:41.66    \nframe=   99 fps=0.4 q=33.5 size=     768KiB time=00:00:03.23 bitrate=1945.9kbits/s speed=0.0146x elapsed=0:03:42.18    \nframe=  100 fps=0.4 q=35.4 size=     768KiB time=00:00:03.26 bitrate=1926.1kbits/s speed=0.0147x elapsed=0:03:42.68    \nframe=  100 fps=0.4 q=35.4 size=     768KiB time=00:00:03.26 bitrate=1926.1kbits/s speed=0.0146x elapsed=0:03:43.22    \nframe=  100 fps=0.4 q=35.4 size=     768KiB time=00:00:03.26 bitrate=1926.1kbits/s speed=0.0146x elapsed=0:03:43.78    \nframe=  100 fps=0.4 q=35.4 size=     768KiB time=00:00:03.26 bitrate=1926.1kbits/s speed=0.0146x elapsed=0:03:44.30    \nframe=  101 fps=0.4 q=35.7 size=     768KiB time=00:00:03.30 bitrate=1906.6kbits/s speed=0.0147x elapsed=0:03:44.82    \nframe=  102 fps=0.5 q=30.8 size=     768KiB time=00:00:03.33 bitrate=1887.5kbits/s speed=0.0148x elapsed=0:03:45.35    \nframe=  102 fps=0.5 q=30.8 size=     768KiB time=00:00:03.33 bitrate=1887.5kbits/s speed=0.0148x elapsed=0:03:45.86    \nframe=  102 fps=0.5 q=30.8 size=     768KiB time=00:00:03.33 bitrate=1887.5kbits/s speed=0.0147x elapsed=0:03:46.40    \nframe=  102 fps=0.4 q=30.8 size=     768KiB time=00:00:03.33 bitrate=1887.5kbits/s speed=0.0147x elapsed=0:03:46.93    \nframe=  103 fps=0.5 q=33.8 size=    1024KiB time=00:00:03.36 bitrate=2491.8kbits/s speed=0.0148x elapsed=0:03:47.46    \nframe=  103 fps=0.5 q=33.8 size=    1024KiB time=00:00:03.36 bitrate=2491.8kbits/s speed=0.0148x elapsed=0:03:47.98    \nframe=  103 fps=0.5 q=33.8 size=    1024KiB time=00:00:03.36 bitrate=2491.8kbits/s speed=0.0147x elapsed=0:03:48.50    \nframe=  104 fps=0.5 q=35.3 size=    1024KiB time=00:00:03.40 bitrate=2467.3kbits/s speed=0.0148x elapsed=0:03:49.02    \nframe=  105 fps=0.5 q=30.8 size=    1024KiB time=00:00:03.43 bitrate=2443.4kbits/s speed=0.015x elapsed=0:03:49.54    \nframe=  105 fps=0.5 q=30.8 size=    1024KiB time=00:00:03.43 bitrate=2443.4kbits/s speed=0.0149x elapsed=0:03:50.06    \nframe=  105 fps=0.5 q=30.8 size=    1024KiB time=00:00:03.43 bitrate=2443.4kbits/s speed=0.0149x elapsed=0:03:50.58    \nframe=  106 fps=0.5 q=32.6 size=    1024KiB time=00:00:03.46 bitrate=2419.9kbits/s speed=0.015x elapsed=0:03:51.10    \nframe=  106 fps=0.5 q=32.6 size=    1024KiB time=00:00:03.46 bitrate=2419.9kbits/s speed=0.015x elapsed=0:03:51.63    \nframe=  106 fps=0.5 q=32.6 size=    1024KiB time=00:00:03.46 bitrate=2419.9kbits/s speed=0.0149x elapsed=0:03:52.14    \nframe=  107 fps=0.5 q=35.2 size=    1024KiB time=00:00:03.50 bitrate=2396.8kbits/s speed=0.015x elapsed=0:03:52.67    \nframe=  107 fps=0.5 q=35.2 size=    1024KiB time=00:00:03.50 bitrate=2396.8kbits/s speed=0.015x elapsed=0:03:53.22    \nframe=  108 fps=0.5 q=30.7 size=    1024KiB time=00:00:03.53 bitrate=2374.2kbits/s speed=0.0151x elapsed=0:03:53.76    \nframe=  108 fps=0.5 q=30.7 size=    1024KiB time=00:00:03.53 bitrate=2374.2kbits/s speed=0.0151x elapsed=0:03:54.29    \nframe=  108 fps=0.5 q=30.7 size=    1024KiB time=00:00:03.53 bitrate=2374.2kbits/s speed=0.015x elapsed=0:03:54.82    \nframe=  108 fps=0.5 q=30.7 size=    1024KiB time=00:00:03.53 bitrate=2374.2kbits/s speed=0.015x elapsed=0:03:55.37    \nframe=  108 fps=0.5 q=30.7 size=    1024KiB time=00:00:03.53 bitrate=2374.2kbits/s speed=0.015x elapsed=0:03:55.88    \nframe=  109 fps=0.5 q=33.5 size=    1024KiB time=00:00:03.56 bitrate=2352.0kbits/s speed=0.0151x elapsed=0:03:56.39    \nframe=  109 fps=0.5 q=33.5 size=    1024KiB time=00:00:03.56 bitrate=2352.0kbits/s speed=0.0151x elapsed=0:03:56.91    \nframe=  109 fps=0.5 q=33.5 size=    1024KiB time=00:00:03.56 bitrate=2352.0kbits/s speed=0.015x elapsed=0:03:57.44    \nframe=  109 fps=0.5 q=33.5 size=    1024KiB time=00:00:03.56 bitrate=2352.0kbits/s speed=0.015x elapsed=0:03:57.98    \nframe=  110 fps=0.5 q=35.5 size=    1024KiB time=00:00:03.60 bitrate=2330.3kbits/s speed=0.0151x elapsed=0:03:58.51    \nframe=  110 fps=0.5 q=35.5 size=    1024KiB time=00:00:03.60 bitrate=2330.3kbits/s speed=0.0151x elapsed=0:03:59.04    \nframe=  111 fps=0.5 q=35.8 size=    1024KiB time=00:00:03.63 bitrate=2308.9kbits/s speed=0.0152x elapsed=0:03:59.57    \nframe=  111 fps=0.5 q=35.8 size=    1024KiB time=00:00:03.63 bitrate=2308.9kbits/s speed=0.0151x elapsed=0:04:00.09    \nframe=  111 fps=0.5 q=35.8 size=    1024KiB time=00:00:03.63 bitrate=2308.9kbits/s speed=0.0151x elapsed=0:04:00.61    \nframe=  111 fps=0.5 q=35.8 size=    1024KiB time=00:00:03.63 bitrate=2308.9kbits/s speed=0.0151x elapsed=0:04:01.12    \nframe=  112 fps=0.5 q=31.0 size=    1024KiB time=00:00:03.66 bitrate=2287.9kbits/s speed=0.0152x elapsed=0:04:01.64    \nframe=  112 fps=0.5 q=31.0 size=    1024KiB time=00:00:03.66 bitrate=2287.9kbits/s speed=0.0151x elapsed=0:04:02.17    \nframe=  112 fps=0.5 q=31.0 size=    1024KiB time=00:00:03.66 bitrate=2287.9kbits/s speed=0.0151x elapsed=0:04:02.70    \nframe=  113 fps=0.5 q=33.5 size=    1024KiB time=00:00:03.70 bitrate=2267.3kbits/s speed=0.0152x elapsed=0:04:03.24    \nframe=  113 fps=0.5 q=33.5 size=    1024KiB time=00:00:03.70 bitrate=2267.3kbits/s speed=0.0152x elapsed=0:04:03.76    \nframe=  114 fps=0.5 q=35.7 size=    1024KiB time=00:00:03.70 bitrate=2267.3kbits/s speed=0.0151x elapsed=0:04:04.31    \nframe=  114 fps=0.5 q=35.7 size=    1024KiB time=00:00:03.73 bitrate=2247.0kbits/s speed=0.0152x elapsed=0:04:04.84    \nframe=  114 fps=0.5 q=35.7 size=    1024KiB time=00:00:03.73 bitrate=2247.0kbits/s speed=0.0152x elapsed=0:04:05.36    \nframe=  115 fps=0.5 q=35.3 size=    1024KiB time=00:00:03.76 bitrate=2227.2kbits/s speed=0.0153x elapsed=0:04:05.90    \nframe=  115 fps=0.5 q=35.3 size=    1024KiB time=00:00:03.76 bitrate=2227.2kbits/s speed=0.0153x elapsed=0:04:06.40    \nframe=  115 fps=0.5 q=35.3 size=    1024KiB time=00:00:03.76 bitrate=2227.2kbits/s speed=0.0153x elapsed=0:04:06.93    \nframe=  116 fps=0.5 q=31.3 size=    1024KiB time=00:00:03.80 bitrate=2207.6kbits/s speed=0.0154x elapsed=0:04:07.44    \nframe=  116 fps=0.5 q=31.3 size=    1024KiB time=00:00:03.80 bitrate=2207.6kbits/s speed=0.0153x elapsed=0:04:07.96    \nframe=  116 fps=0.5 q=31.3 size=    1024KiB time=00:00:03.80 bitrate=2207.6kbits/s speed=0.0153x elapsed=0:04:08.50    \nframe=  117 fps=0.5 q=33.5 size=    1024KiB time=00:00:03.83 bitrate=2188.4kbits/s speed=0.0154x elapsed=0:04:09.03    \nframe=  117 fps=0.5 q=33.5 size=    1024KiB time=00:00:03.83 bitrate=2188.4kbits/s speed=0.0154x elapsed=0:04:09.55    \nframe=  118 fps=0.5 q=35.3 size=    1024KiB time=00:00:03.86 bitrate=2169.6kbits/s speed=0.0155x elapsed=0:04:10.07    \nframe=  118 fps=0.5 q=35.3 size=    1024KiB time=00:00:03.86 bitrate=2169.6kbits/s speed=0.0154x elapsed=0:04:10.57    \nframe=  118 fps=0.5 q=35.3 size=    1024KiB time=00:00:03.86 bitrate=2169.6kbits/s speed=0.0154x elapsed=0:04:11.09    \nframe=  119 fps=0.5 q=35.5 size=    1024KiB time=00:00:03.90 bitrate=2151.0kbits/s speed=0.0155x elapsed=0:04:11.61    \nframe=  120 fps=0.5 q=31.0 size=    1024KiB time=00:00:03.93 bitrate=2132.8kbits/s speed=0.0156x elapsed=0:04:12.12    \nframe=  120 fps=0.5 q=31.0 size=    1024KiB time=00:00:03.93 bitrate=2132.8kbits/s speed=0.0156x elapsed=0:04:12.64    \nframe=  120 fps=0.5 q=31.0 size=    1024KiB time=00:00:03.93 bitrate=2132.8kbits/s speed=0.0155x elapsed=0:04:13.22    \nframe=  120 fps=0.5 q=31.0 size=    1024KiB time=00:00:03.93 bitrate=2132.8kbits/s speed=0.0155x elapsed=0:04:13.79    \nframe=  120 fps=0.5 q=31.0 size=    1024KiB time=00:00:03.93 bitrate=2132.8kbits/s speed=0.0155x elapsed=0:04:14.33    \nframe=  120 fps=0.5 q=31.0 size=    1024KiB time=00:00:03.93 bitrate=2132.8kbits/s speed=0.0154x elapsed=0:04:14.84    \nframe=  120 fps=0.5 q=31.0 size=    1024KiB time=00:00:03.93 bitrate=2132.8kbits/s speed=0.0154x elapsed=0:04:15.38    \nframe=  121 fps=0.5 q=35.8 size=    1024KiB time=00:00:03.96 bitrate=2114.9kbits/s speed=0.0155x elapsed=0:04:15.91    \nframe=  121 fps=0.5 q=35.8 size=    1024KiB time=00:00:03.96 bitrate=2114.9kbits/s speed=0.0155x elapsed=0:04:16.43    \nframe=  122 fps=0.5 q=30.7 size=    1024KiB time=00:00:04.00 bitrate=2097.2kbits/s speed=0.0156x elapsed=0:04:16.93    \nframe=  122 fps=0.5 q=30.7 size=    1024KiB time=00:00:04.00 bitrate=2097.2kbits/s speed=0.0155x elapsed=0:04:17.46    \nframe=  122 fps=0.5 q=30.7 size=    1024KiB time=00:00:04.00 bitrate=2097.2kbits/s speed=0.0155x elapsed=0:04:17.97    \nframe=  122 fps=0.5 q=30.7 size=    1024KiB time=00:00:04.00 bitrate=2097.2kbits/s speed=0.0155x elapsed=0:04:18.50    \nframe=  124 fps=0.5 q=35.7 size=    1024KiB time=00:00:04.06 bitrate=2062.9kbits/s speed=0.0157x elapsed=0:04:19.02    \nframe=  124 fps=0.5 q=35.7 size=    1024KiB time=00:00:04.06 bitrate=2062.9kbits/s speed=0.0157x elapsed=0:04:19.53    \nframe=  124 fps=0.5 q=35.7 size=    1024KiB time=00:00:04.06 bitrate=2062.9kbits/s speed=0.0156x elapsed=0:04:20.06    \nframe=  124 fps=0.5 q=35.7 size=    1024KiB time=00:00:04.06 bitrate=2062.9kbits/s speed=0.0156x elapsed=0:04:20.58    \nframe=  125 fps=0.5 q=35.8 size=    1280KiB time=00:00:04.10 bitrate=2557.6kbits/s speed=0.0157x elapsed=0:04:21.10    \nframe=  125 fps=0.5 q=35.8 size=    1280KiB time=00:00:04.10 bitrate=2557.6kbits/s speed=0.0157x elapsed=0:04:21.63    \nframe=  125 fps=0.5 q=35.8 size=    1280KiB time=00:00:04.10 bitrate=2557.6kbits/s speed=0.0156x elapsed=0:04:22.14    \nframe=  125 fps=0.5 q=35.8 size=    1280KiB time=00:00:04.10 bitrate=2557.6kbits/s speed=0.0156x elapsed=0:04:22.70    \nframe=  125 fps=0.5 q=35.8 size=    1280KiB time=00:00:04.10 bitrate=2557.6kbits/s speed=0.0156x elapsed=0:04:23.22    \nframe=  126 fps=0.5 q=30.9 size=    1280KiB time=00:00:04.13 bitrate=2537.0kbits/s speed=0.0157x elapsed=0:04:23.73    \nframe=  127 fps=0.5 q=33.7 size=    1280KiB time=00:00:04.16 bitrate=2516.7kbits/s speed=0.0158x elapsed=0:04:24.25    \nframe=  127 fps=0.5 q=33.7 size=    1280KiB time=00:00:04.16 bitrate=2516.7kbits/s speed=0.0157x elapsed=0:04:24.77    \nframe=  127 fps=0.5 q=33.7 size=    1280KiB time=00:00:04.16 bitrate=2516.7kbits/s speed=0.0157x elapsed=0:04:25.29    \nframe=  128 fps=0.5 q=35.4 size=    1280KiB time=00:00:04.20 bitrate=2496.7kbits/s speed=0.0158x elapsed=0:04:25.83    \nframe=  128 fps=0.5 q=35.4 size=    1280KiB time=00:00:04.20 bitrate=2496.7kbits/s speed=0.0158x elapsed=0:04:26.37    \nframe=  128 fps=0.5 q=35.4 size=    1280KiB time=00:00:04.20 bitrate=2496.7kbits/s speed=0.0157x elapsed=0:04:26.90    \nframe=  129 fps=0.5 q=35.8 size=    1280KiB time=00:00:04.23 bitrate=2477.0kbits/s speed=0.0158x elapsed=0:04:27.45    \nframe=  129 fps=0.5 q=35.8 size=    1280KiB time=00:00:04.23 bitrate=2477.0kbits/s speed=0.0158x elapsed=0:04:27.99    \nframe=  129 fps=0.5 q=35.8 size=    1280KiB time=00:00:04.23 bitrate=2477.0kbits/s speed=0.0158x elapsed=0:04:28.57    \nframe=  129 fps=0.5 q=35.8 size=    1280KiB time=00:00:04.23 bitrate=2477.0kbits/s speed=0.0157x elapsed=0:04:29.09    \nframe=  130 fps=0.5 q=30.9 size=    1280KiB time=00:00:04.26 bitrate=2457.7kbits/s speed=0.0158x elapsed=0:04:29.60    \nframe=  130 fps=0.5 q=30.9 size=    1280KiB time=00:00:04.26 bitrate=2457.7kbits/s speed=0.0158x elapsed=0:04:30.15    \nframe=  130 fps=0.5 q=30.9 size=    1280KiB time=00:00:04.26 bitrate=2457.7kbits/s speed=0.0158x elapsed=0:04:30.68    \nframe=  130 fps=0.5 q=30.9 size=    1280KiB time=00:00:04.26 bitrate=2457.7kbits/s speed=0.0157x elapsed=0:04:31.20    \nframe=  130 fps=0.5 q=30.9 size=    1280KiB time=00:00:04.26 bitrate=2457.7kbits/s speed=0.0157x elapsed=0:04:31.72    \nframe=  131 fps=0.5 q=33.9 size=    1280KiB time=00:00:04.30 bitrate=2438.6kbits/s speed=0.0158x elapsed=0:04:32.26    \nframe=  131 fps=0.5 q=33.9 size=    1280KiB time=00:00:04.30 bitrate=2438.6kbits/s speed=0.0158x elapsed=0:04:32.78    \nframe=  131 fps=0.5 q=33.9 size=    1280KiB time=00:00:04.30 bitrate=2438.6kbits/s speed=0.0157x elapsed=0:04:33.30    \nframe=  131 fps=0.5 q=33.9 size=    1280KiB time=00:00:04.30 bitrate=2438.6kbits/s speed=0.0157x elapsed=0:04:33.81    \nframe=  131 fps=0.5 q=33.9 size=    1280KiB time=00:00:04.30 bitrate=2438.6kbits/s speed=0.0157x elapsed=0:04:34.34    \nframe=  132 fps=0.5 q=36.1 size=    1280KiB time=00:00:04.33 bitrate=2419.9kbits/s speed=0.0158x elapsed=0:04:34.90    \nframe=  132 fps=0.5 q=36.1 size=    1280KiB time=00:00:04.33 bitrate=2419.9kbits/s speed=0.0157x elapsed=0:04:35.43    \nframe=  133 fps=0.5 q=36.1 size=    1280KiB time=00:00:04.36 bitrate=2401.4kbits/s speed=0.0158x elapsed=0:04:35.96    \nframe=  133 fps=0.5 q=36.1 size=    1280KiB time=00:00:04.36 bitrate=2401.4kbits/s speed=0.0158x elapsed=0:04:36.46    \nframe=  133 fps=0.5 q=36.1 size=    1280KiB time=00:00:04.36 bitrate=2401.4kbits/s speed=0.0158x elapsed=0:04:36.98    \nframe=  134 fps=0.5 q=31.1 size=    1280KiB time=00:00:04.40 bitrate=2383.2kbits/s speed=0.0159x elapsed=0:04:37.51    \nframe=  134 fps=0.5 q=31.1 size=    1280KiB time=00:00:04.40 bitrate=2383.2kbits/s speed=0.0158x elapsed=0:04:38.04    \nframe=  134 fps=0.5 q=31.1 size=    1280KiB time=00:00:04.40 bitrate=2383.2kbits/s speed=0.0158x elapsed=0:04:38.56    \nframe=  134 fps=0.5 q=31.1 size=    1280KiB time=00:00:04.40 bitrate=2383.2kbits/s speed=0.0158x elapsed=0:04:39.08    \nframe=  134 fps=0.5 q=31.1 size=    1280KiB time=00:00:04.40 bitrate=2383.2kbits/s speed=0.0157x elapsed=0:04:39.61    \nframe=  135 fps=0.5 q=33.8 size=    1280KiB time=00:00:04.43 bitrate=2365.3kbits/s speed=0.0158x elapsed=0:04:40.14    \nframe=  135 fps=0.5 q=33.8 size=    1280KiB time=00:00:04.43 bitrate=2365.3kbits/s speed=0.0158x elapsed=0:04:40.65    \nframe=  136 fps=0.5 q=35.9 size=    1280KiB time=00:00:04.46 bitrate=2347.6kbits/s speed=0.0159x elapsed=0:04:41.18    \nframe=  137 fps=0.5 q=36.0 size=    1280KiB time=00:00:04.50 bitrate=2330.2kbits/s speed=0.016x elapsed=0:04:41.71    \nframe=  137 fps=0.5 q=36.0 size=    1280KiB time=00:00:04.50 bitrate=2330.2kbits/s speed=0.0159x elapsed=0:04:42.22    \nframe=  138 fps=0.5 q=30.9 size=    1280KiB time=00:00:04.53 bitrate=2313.1kbits/s speed=0.016x elapsed=0:04:42.74    \nframe=  139 fps=0.5 q=33.9 size=    1280KiB time=00:00:04.56 bitrate=2296.2kbits/s speed=0.0161x elapsed=0:04:43.25    \nframe=  139 fps=0.5 q=33.9 size=    1280KiB time=00:00:04.56 bitrate=2296.2kbits/s speed=0.0161x elapsed=0:04:43.78    \nframe=  139 fps=0.5 q=33.9 size=    1280KiB time=00:00:04.56 bitrate=2296.2kbits/s speed=0.0161x elapsed=0:04:44.33    \nframe=  139 fps=0.5 q=33.9 size=    1280KiB time=00:00:04.56 bitrate=2296.2kbits/s speed=0.016x elapsed=0:04:44.88    \nframe=  139 fps=0.5 q=33.9 size=    1280KiB time=00:00:04.56 bitrate=2296.2kbits/s speed=0.016x elapsed=0:04:45.45    \nframe=  139 fps=0.5 q=33.9 size=    1280KiB time=00:00:04.56 bitrate=2296.2kbits/s speed=0.016x elapsed=0:04:46.05    \nframe=  139 fps=0.5 q=33.9 size=    1280KiB time=00:00:04.56 bitrate=2296.2kbits/s speed=0.0159x elapsed=0:04:46.59    \nframe=  139 fps=0.5 q=33.9 size=    1280KiB time=00:00:04.56 bitrate=2296.2kbits/s speed=0.0159x elapsed=0:04:47.14    \nframe=  140 fps=0.5 q=35.9 size=    1280KiB time=00:00:04.60 bitrate=2279.6kbits/s speed=0.016x elapsed=0:04:47.69    \nframe=  140 fps=0.5 q=35.9 size=    1280KiB time=00:00:04.60 bitrate=2279.6kbits/s speed=0.016x elapsed=0:04:48.23    \nframe=  141 fps=0.5 q=36.0 size=    1280KiB time=00:00:04.63 bitrate=2263.2kbits/s speed=0.016x elapsed=0:04:48.77    \nframe=  141 fps=0.5 q=36.0 size=    1280KiB time=00:00:04.63 bitrate=2263.2kbits/s speed=0.016x elapsed=0:04:49.28    \nframe=  142 fps=0.5 q=31.6 size=    1280KiB time=00:00:04.66 bitrate=2247.0kbits/s speed=0.0161x elapsed=0:04:49.83    \nframe=  142 fps=0.5 q=31.6 size=    1280KiB time=00:00:04.66 bitrate=2247.0kbits/s speed=0.0161x elapsed=0:04:50.37    \nframe=  143 fps=0.5 q=33.7 size=    1280KiB time=00:00:04.70 bitrate=2231.1kbits/s speed=0.0162x elapsed=0:04:50.87    \nframe=  144 fps=0.5 q=35.9 size=    1280KiB time=00:00:04.73 bitrate=2215.4kbits/s speed=0.0162x elapsed=0:04:51.39    \nframe=  145 fps=0.5 q=36.2 size=    1280KiB time=00:00:04.76 bitrate=2199.9kbits/s speed=0.0163x elapsed=0:04:51.91    \nframe=  146 fps=0.5 q=36.0 size=    1280KiB time=00:00:04.80 bitrate=2184.6kbits/s speed=0.0164x elapsed=0:04:52.43    \nframe=  147 fps=0.5 q=33.2 size=    1280KiB time=00:00:04.83 bitrate=2169.5kbits/s speed=0.0165x elapsed=0:04:52.94    \nframe=  147 fps=0.5 q=33.2 size=    1280KiB time=00:00:04.83 bitrate=2169.5kbits/s speed=0.0165x elapsed=0:04:53.46    \nframe=  149 fps=0.5 q=36.0 size=    1280KiB time=00:00:04.90 bitrate=2140.0kbits/s speed=0.0167x elapsed=0:04:53.96    \n[mp4 @ 0000014429b1c680] Starting second pass: moving the moov atom to the beginning of the file\n[out#0/mp4 @ 0000014429b1c580] video:1525KiB audio:0KiB subtitle:0KiB other streams:0KiB global headers:2KiB muxing overhead: 0.340244%\nframe=  150 fps=0.5 q=35.5 Lsize=    1530KiB time=00:00:04.93 bitrate=2540.3kbits/s speed=0.0168x elapsed=0:04:54.04    \nx265 [info]: frame I:      1, Avg QP:33.71  kb/s: 5717.28 \nx265 [info]: frame P:     42, Avg QP:31.29  kb/s: 4024.66 \nx265 [info]: frame B:    107, Avg QP:34.69  kb/s: 1867.28 \nx265 [info]: Weighted P-Frames: Y:11.9% UV:9.5%\n\nencoded 150 frames in 293.77s (0.51 fps), 2497.01 kb/s, Avg QP:33.73\n",
  "seconds": 294.3200809955597,
  "probe_out": {}
}